%TF.GenerationSoftware,KiCad,Pcbnew,8.0.7*%
%TF.CreationDate,2025-02-05T23:04:45+01:00*%
%TF.ProjectId,YADCMCB,59414443-4d43-4422-9e6b-696361645f70,rev?*%
%TF.SameCoordinates,Original*%
%TF.FileFunction,Drillmap*%
%TF.FilePolarity,Positive*%
%FSLAX45Y45*%
G04 Gerber Fmt 4.5, Leading zero omitted, Abs format (unit mm)*
G04 Created by KiCad (PCBNEW 8.0.7) date 2025-02-05 23:04:45*
%MOMM*%
%LPD*%
G01*
G04 APERTURE LIST*
%ADD10C,0.050000*%
%ADD11C,0.200000*%
%ADD12C,0.100000*%
%ADD13C,0.210000*%
G04 APERTURE END LIST*
D10*
X151000Y71000D02*
X3151000Y71000D01*
X3151000Y-6929000D01*
X151000Y-6929000D01*
X151000Y71000D01*
X1091400Y-2667000D02*
X1854200Y-2667000D01*
X1854200Y-3175000D01*
X1091400Y-3175000D01*
X1091400Y-2667000D01*
D11*
D12*
X1318500Y-1826500D02*
X1348500Y-1856500D01*
X1348500Y-1826500D02*
X1318500Y-1856500D01*
X1953500Y-1826500D02*
X1983500Y-1856500D01*
X1983500Y-1826500D02*
X1953500Y-1856500D01*
X1256000Y-209000D02*
G75*
G02*
X1196000Y-209000I-30000J0D01*
G01*
X1196000Y-209000D02*
G75*
G02*
X1256000Y-209000I30000J0D01*
G01*
X1196000Y-169000D02*
X1196000Y-249000D01*
X1256000Y-249000D02*
G75*
G02*
X1196000Y-249000I-30000J0D01*
G01*
X1256000Y-249000D02*
X1256000Y-169000D01*
X1256000Y-169000D02*
G75*
G03*
X1196000Y-169000I-30000J0D01*
G01*
X1256000Y-609000D02*
G75*
G02*
X1196000Y-609000I-30000J0D01*
G01*
X1196000Y-609000D02*
G75*
G02*
X1256000Y-609000I30000J0D01*
G01*
X1196000Y-554000D02*
X1196000Y-664000D01*
X1256000Y-664000D02*
G75*
G02*
X1196000Y-664000I-30000J0D01*
G01*
X1256000Y-664000D02*
X1256000Y-554000D01*
X1256000Y-554000D02*
G75*
G03*
X1196000Y-554000I-30000J0D01*
G01*
X2106000Y-209000D02*
G75*
G02*
X2046000Y-209000I-30000J0D01*
G01*
X2046000Y-209000D02*
G75*
G02*
X2106000Y-209000I30000J0D01*
G01*
X2046000Y-169000D02*
X2046000Y-249000D01*
X2106000Y-249000D02*
G75*
G02*
X2046000Y-249000I-30000J0D01*
G01*
X2106000Y-249000D02*
X2106000Y-169000D01*
X2106000Y-169000D02*
G75*
G03*
X2046000Y-169000I-30000J0D01*
G01*
X2106000Y-609000D02*
G75*
G02*
X2046000Y-609000I-30000J0D01*
G01*
X2046000Y-609000D02*
G75*
G02*
X2106000Y-609000I30000J0D01*
G01*
X2046000Y-554000D02*
X2046000Y-664000D01*
X2106000Y-664000D02*
G75*
G02*
X2046000Y-664000I-30000J0D01*
G01*
X2106000Y-664000D02*
X2106000Y-554000D01*
X2106000Y-554000D02*
G75*
G03*
X2046000Y-554000I-30000J0D01*
G01*
X508000Y-6048500D02*
X508000Y-6143500D01*
X460500Y-6096000D02*
X555500Y-6096000D01*
X758000Y-6048500D02*
X758000Y-6143500D01*
X710500Y-6096000D02*
X805500Y-6096000D01*
X1008000Y-6048500D02*
X1008000Y-6143500D01*
X960500Y-6096000D02*
X1055500Y-6096000D01*
X1258000Y-6048500D02*
X1258000Y-6143500D01*
X1210500Y-6096000D02*
X1305500Y-6096000D01*
X1508000Y-6048500D02*
X1508000Y-6143500D01*
X1460500Y-6096000D02*
X1555500Y-6096000D01*
X1758000Y-6048500D02*
X1758000Y-6143500D01*
X1710500Y-6096000D02*
X1805500Y-6096000D01*
X543356Y-797356D02*
X543356Y-726644D01*
X472644Y-726644D01*
X472644Y-797356D01*
X543356Y-797356D01*
X543356Y-1051356D02*
X543356Y-980644D01*
X472644Y-980644D01*
X472644Y-1051356D01*
X543356Y-1051356D01*
X543356Y-1305356D02*
X543356Y-1234644D01*
X472644Y-1234644D01*
X472644Y-1305356D01*
X543356Y-1305356D01*
X543356Y-1559356D02*
X543356Y-1488644D01*
X472644Y-1488644D01*
X472644Y-1559356D01*
X543356Y-1559356D01*
X543356Y-1813356D02*
X543356Y-1742644D01*
X472644Y-1742644D01*
X472644Y-1813356D01*
X543356Y-1813356D01*
X543356Y-2067356D02*
X543356Y-1996644D01*
X472644Y-1996644D01*
X472644Y-2067356D01*
X543356Y-2067356D01*
X543356Y-2321356D02*
X543356Y-2250644D01*
X472644Y-2250644D01*
X472644Y-2321356D01*
X543356Y-2321356D01*
X543356Y-2575356D02*
X543356Y-2504644D01*
X472644Y-2504644D01*
X472644Y-2575356D01*
X543356Y-2575356D01*
X543356Y-4099356D02*
X543356Y-4028644D01*
X472644Y-4028644D01*
X472644Y-4099356D01*
X543356Y-4099356D01*
X543356Y-5623356D02*
X543356Y-5552644D01*
X472644Y-5552644D01*
X472644Y-5623356D01*
X543356Y-5623356D01*
X785856Y-4599856D02*
X785856Y-4529144D01*
X715144Y-4529144D01*
X715144Y-4599856D01*
X785856Y-4599856D01*
X785856Y-4853856D02*
X785856Y-4783144D01*
X715144Y-4783144D01*
X715144Y-4853856D01*
X785856Y-4853856D01*
X797356Y-4099356D02*
X797356Y-4028644D01*
X726644Y-4028644D01*
X726644Y-4099356D01*
X797356Y-4099356D01*
X797356Y-5623356D02*
X797356Y-5552644D01*
X726644Y-5552644D01*
X726644Y-5623356D01*
X797356Y-5623356D01*
X924356Y-2702356D02*
X924356Y-2631644D01*
X853644Y-2631644D01*
X853644Y-2702356D01*
X924356Y-2702356D01*
X924356Y-2956356D02*
X924356Y-2885644D01*
X853644Y-2885644D01*
X853644Y-2956356D01*
X924356Y-2956356D01*
X924356Y-3210356D02*
X924356Y-3139644D01*
X853644Y-3139644D01*
X853644Y-3210356D01*
X924356Y-3210356D01*
X1051356Y-3654856D02*
X1051356Y-3584144D01*
X980644Y-3584144D01*
X980644Y-3654856D01*
X1051356Y-3654856D01*
X1051356Y-4099356D02*
X1051356Y-4028644D01*
X980644Y-4028644D01*
X980644Y-4099356D01*
X1051356Y-4099356D01*
X1051356Y-5623356D02*
X1051356Y-5552644D01*
X980644Y-5552644D01*
X980644Y-5623356D01*
X1051356Y-5623356D01*
X1305356Y-3654856D02*
X1305356Y-3584144D01*
X1234644Y-3584144D01*
X1234644Y-3654856D01*
X1305356Y-3654856D01*
X1305356Y-4099356D02*
X1305356Y-4028644D01*
X1234644Y-4028644D01*
X1234644Y-4099356D01*
X1305356Y-4099356D01*
X1305356Y-5623356D02*
X1305356Y-5552644D01*
X1234644Y-5552644D01*
X1234644Y-5623356D01*
X1305356Y-5623356D01*
X1559356Y-3654856D02*
X1559356Y-3584144D01*
X1488644Y-3584144D01*
X1488644Y-3654856D01*
X1559356Y-3654856D01*
X1559356Y-4099356D02*
X1559356Y-4028644D01*
X1488644Y-4028644D01*
X1488644Y-4099356D01*
X1559356Y-4099356D01*
X1559356Y-5623356D02*
X1559356Y-5552644D01*
X1488644Y-5552644D01*
X1488644Y-5623356D01*
X1559356Y-5623356D01*
X1813356Y-3654856D02*
X1813356Y-3584144D01*
X1742644Y-3584144D01*
X1742644Y-3654856D01*
X1813356Y-3654856D01*
X1813356Y-4099356D02*
X1813356Y-4028644D01*
X1742644Y-4028644D01*
X1742644Y-4099356D01*
X1813356Y-4099356D01*
X1813356Y-5623356D02*
X1813356Y-5552644D01*
X1742644Y-5552644D01*
X1742644Y-5623356D01*
X1813356Y-5623356D01*
X2067356Y-3654856D02*
X2067356Y-3584144D01*
X1996644Y-3584144D01*
X1996644Y-3654856D01*
X2067356Y-3654856D01*
X2205856Y-4599856D02*
X2205856Y-4529144D01*
X2135144Y-4529144D01*
X2135144Y-4599856D01*
X2205856Y-4599856D01*
X2205856Y-4853856D02*
X2205856Y-4783144D01*
X2135144Y-4783144D01*
X2135144Y-4853856D01*
X2205856Y-4853856D01*
X2301856Y-5369356D02*
X2301856Y-5298644D01*
X2231144Y-5298644D01*
X2231144Y-5369356D01*
X2301856Y-5369356D01*
X2301856Y-5679356D02*
X2301856Y-5608644D01*
X2231144Y-5608644D01*
X2231144Y-5679356D01*
X2301856Y-5679356D01*
X2321356Y-3654856D02*
X2321356Y-3584144D01*
X2250644Y-3584144D01*
X2250644Y-3654856D01*
X2321356Y-3654856D01*
X2555856Y-5369356D02*
X2555856Y-5298644D01*
X2485144Y-5298644D01*
X2485144Y-5369356D01*
X2555856Y-5369356D01*
X2555856Y-5679356D02*
X2555856Y-5608644D01*
X2485144Y-5608644D01*
X2485144Y-5679356D01*
X2555856Y-5679356D01*
X2575356Y-6131356D02*
X2575356Y-6060644D01*
X2504644Y-6060644D01*
X2504644Y-6131356D01*
X2575356Y-6131356D01*
X2825356Y-6131356D02*
X2825356Y-6060644D01*
X2754644Y-6060644D01*
X2754644Y-6131356D01*
X2825356Y-6131356D01*
X2829356Y-797356D02*
X2829356Y-726644D01*
X2758644Y-726644D01*
X2758644Y-797356D01*
X2829356Y-797356D01*
X2829356Y-1051356D02*
X2829356Y-980644D01*
X2758644Y-980644D01*
X2758644Y-1051356D01*
X2829356Y-1051356D01*
X2829356Y-1305356D02*
X2829356Y-1234644D01*
X2758644Y-1234644D01*
X2758644Y-1305356D01*
X2829356Y-1305356D01*
X2829356Y-1559356D02*
X2829356Y-1488644D01*
X2758644Y-1488644D01*
X2758644Y-1559356D01*
X2829356Y-1559356D01*
X2829356Y-1813356D02*
X2829356Y-1742644D01*
X2758644Y-1742644D01*
X2758644Y-1813356D01*
X2829356Y-1813356D01*
X2829356Y-2067356D02*
X2829356Y-1996644D01*
X2758644Y-1996644D01*
X2758644Y-2067356D01*
X2829356Y-2067356D01*
X2829356Y-2321356D02*
X2829356Y-2250644D01*
X2758644Y-2250644D01*
X2758644Y-2321356D01*
X2829356Y-2321356D01*
X2829356Y-2575356D02*
X2829356Y-2504644D01*
X2758644Y-2504644D01*
X2758644Y-2575356D01*
X2829356Y-2575356D01*
D13*
X351000Y-234000D02*
X456000Y-129000D01*
X351000Y-24000D01*
X246000Y-129000D01*
X351000Y-234000D01*
X351000Y-6834000D02*
X456000Y-6729000D01*
X351000Y-6624000D01*
X246000Y-6729000D01*
X351000Y-6834000D01*
X2951000Y-234000D02*
X3056000Y-129000D01*
X2951000Y-24000D01*
X2846000Y-129000D01*
X2951000Y-234000D01*
X2951000Y-6834000D02*
X3056000Y-6729000D01*
X2951000Y-6624000D01*
X2846000Y-6729000D01*
X2951000Y-6834000D01*
D11*
X409277Y-7242984D02*
X409277Y-7042984D01*
X409277Y-7042984D02*
X456896Y-7042984D01*
X456896Y-7042984D02*
X485467Y-7052508D01*
X485467Y-7052508D02*
X504515Y-7071555D01*
X504515Y-7071555D02*
X514039Y-7090603D01*
X514039Y-7090603D02*
X523562Y-7128698D01*
X523562Y-7128698D02*
X523562Y-7157269D01*
X523562Y-7157269D02*
X514039Y-7195365D01*
X514039Y-7195365D02*
X504515Y-7214412D01*
X504515Y-7214412D02*
X485467Y-7233460D01*
X485467Y-7233460D02*
X456896Y-7242984D01*
X456896Y-7242984D02*
X409277Y-7242984D01*
X609277Y-7242984D02*
X609277Y-7109650D01*
X609277Y-7147746D02*
X618801Y-7128698D01*
X618801Y-7128698D02*
X628324Y-7119174D01*
X628324Y-7119174D02*
X647372Y-7109650D01*
X647372Y-7109650D02*
X666420Y-7109650D01*
X733086Y-7242984D02*
X733086Y-7109650D01*
X733086Y-7042984D02*
X723562Y-7052508D01*
X723562Y-7052508D02*
X733086Y-7062031D01*
X733086Y-7062031D02*
X742610Y-7052508D01*
X742610Y-7052508D02*
X733086Y-7042984D01*
X733086Y-7042984D02*
X733086Y-7062031D01*
X856896Y-7242984D02*
X837848Y-7233460D01*
X837848Y-7233460D02*
X828324Y-7214412D01*
X828324Y-7214412D02*
X828324Y-7042984D01*
X961658Y-7242984D02*
X942610Y-7233460D01*
X942610Y-7233460D02*
X933086Y-7214412D01*
X933086Y-7214412D02*
X933086Y-7042984D01*
X1190229Y-7242984D02*
X1190229Y-7042984D01*
X1190229Y-7042984D02*
X1256896Y-7185841D01*
X1256896Y-7185841D02*
X1323563Y-7042984D01*
X1323563Y-7042984D02*
X1323563Y-7242984D01*
X1504515Y-7242984D02*
X1504515Y-7138222D01*
X1504515Y-7138222D02*
X1494991Y-7119174D01*
X1494991Y-7119174D02*
X1475943Y-7109650D01*
X1475943Y-7109650D02*
X1437848Y-7109650D01*
X1437848Y-7109650D02*
X1418801Y-7119174D01*
X1504515Y-7233460D02*
X1485467Y-7242984D01*
X1485467Y-7242984D02*
X1437848Y-7242984D01*
X1437848Y-7242984D02*
X1418801Y-7233460D01*
X1418801Y-7233460D02*
X1409277Y-7214412D01*
X1409277Y-7214412D02*
X1409277Y-7195365D01*
X1409277Y-7195365D02*
X1418801Y-7176317D01*
X1418801Y-7176317D02*
X1437848Y-7166793D01*
X1437848Y-7166793D02*
X1485467Y-7166793D01*
X1485467Y-7166793D02*
X1504515Y-7157269D01*
X1599753Y-7109650D02*
X1599753Y-7309650D01*
X1599753Y-7119174D02*
X1618801Y-7109650D01*
X1618801Y-7109650D02*
X1656896Y-7109650D01*
X1656896Y-7109650D02*
X1675943Y-7119174D01*
X1675943Y-7119174D02*
X1685467Y-7128698D01*
X1685467Y-7128698D02*
X1694991Y-7147746D01*
X1694991Y-7147746D02*
X1694991Y-7204888D01*
X1694991Y-7204888D02*
X1685467Y-7223936D01*
X1685467Y-7223936D02*
X1675943Y-7233460D01*
X1675943Y-7233460D02*
X1656896Y-7242984D01*
X1656896Y-7242984D02*
X1618801Y-7242984D01*
X1618801Y-7242984D02*
X1599753Y-7233460D01*
X1780705Y-7223936D02*
X1790229Y-7233460D01*
X1790229Y-7233460D02*
X1780705Y-7242984D01*
X1780705Y-7242984D02*
X1771182Y-7233460D01*
X1771182Y-7233460D02*
X1780705Y-7223936D01*
X1780705Y-7223936D02*
X1780705Y-7242984D01*
X1780705Y-7119174D02*
X1790229Y-7128698D01*
X1790229Y-7128698D02*
X1780705Y-7138222D01*
X1780705Y-7138222D02*
X1771182Y-7128698D01*
X1771182Y-7128698D02*
X1780705Y-7119174D01*
X1780705Y-7119174D02*
X1780705Y-7138222D01*
D12*
X118500Y-7556500D02*
X148500Y-7586500D01*
X148500Y-7556500D02*
X118500Y-7586500D01*
D11*
X447372Y-7462984D02*
X466420Y-7462984D01*
X466420Y-7462984D02*
X485467Y-7472508D01*
X485467Y-7472508D02*
X494991Y-7482031D01*
X494991Y-7482031D02*
X504515Y-7501079D01*
X504515Y-7501079D02*
X514039Y-7539174D01*
X514039Y-7539174D02*
X514039Y-7586793D01*
X514039Y-7586793D02*
X504515Y-7624888D01*
X504515Y-7624888D02*
X494991Y-7643936D01*
X494991Y-7643936D02*
X485467Y-7653460D01*
X485467Y-7653460D02*
X466420Y-7662984D01*
X466420Y-7662984D02*
X447372Y-7662984D01*
X447372Y-7662984D02*
X428324Y-7653460D01*
X428324Y-7653460D02*
X418801Y-7643936D01*
X418801Y-7643936D02*
X409277Y-7624888D01*
X409277Y-7624888D02*
X399753Y-7586793D01*
X399753Y-7586793D02*
X399753Y-7539174D01*
X399753Y-7539174D02*
X409277Y-7501079D01*
X409277Y-7501079D02*
X418801Y-7482031D01*
X418801Y-7482031D02*
X428324Y-7472508D01*
X428324Y-7472508D02*
X447372Y-7462984D01*
X599753Y-7643936D02*
X609277Y-7653460D01*
X609277Y-7653460D02*
X599753Y-7662984D01*
X599753Y-7662984D02*
X590229Y-7653460D01*
X590229Y-7653460D02*
X599753Y-7643936D01*
X599753Y-7643936D02*
X599753Y-7662984D01*
X675944Y-7462984D02*
X799753Y-7462984D01*
X799753Y-7462984D02*
X733086Y-7539174D01*
X733086Y-7539174D02*
X761658Y-7539174D01*
X761658Y-7539174D02*
X780705Y-7548698D01*
X780705Y-7548698D02*
X790229Y-7558222D01*
X790229Y-7558222D02*
X799753Y-7577269D01*
X799753Y-7577269D02*
X799753Y-7624888D01*
X799753Y-7624888D02*
X790229Y-7643936D01*
X790229Y-7643936D02*
X780705Y-7653460D01*
X780705Y-7653460D02*
X761658Y-7662984D01*
X761658Y-7662984D02*
X704515Y-7662984D01*
X704515Y-7662984D02*
X685467Y-7653460D01*
X685467Y-7653460D02*
X675944Y-7643936D01*
X923562Y-7462984D02*
X942610Y-7462984D01*
X942610Y-7462984D02*
X961658Y-7472508D01*
X961658Y-7472508D02*
X971182Y-7482031D01*
X971182Y-7482031D02*
X980705Y-7501079D01*
X980705Y-7501079D02*
X990229Y-7539174D01*
X990229Y-7539174D02*
X990229Y-7586793D01*
X990229Y-7586793D02*
X980705Y-7624888D01*
X980705Y-7624888D02*
X971182Y-7643936D01*
X971182Y-7643936D02*
X961658Y-7653460D01*
X961658Y-7653460D02*
X942610Y-7662984D01*
X942610Y-7662984D02*
X923562Y-7662984D01*
X923562Y-7662984D02*
X904515Y-7653460D01*
X904515Y-7653460D02*
X894991Y-7643936D01*
X894991Y-7643936D02*
X885467Y-7624888D01*
X885467Y-7624888D02*
X875943Y-7586793D01*
X875943Y-7586793D02*
X875943Y-7539174D01*
X875943Y-7539174D02*
X885467Y-7501079D01*
X885467Y-7501079D02*
X894991Y-7482031D01*
X894991Y-7482031D02*
X904515Y-7472508D01*
X904515Y-7472508D02*
X923562Y-7462984D01*
X1114039Y-7462984D02*
X1133086Y-7462984D01*
X1133086Y-7462984D02*
X1152134Y-7472508D01*
X1152134Y-7472508D02*
X1161658Y-7482031D01*
X1161658Y-7482031D02*
X1171182Y-7501079D01*
X1171182Y-7501079D02*
X1180705Y-7539174D01*
X1180705Y-7539174D02*
X1180705Y-7586793D01*
X1180705Y-7586793D02*
X1171182Y-7624888D01*
X1171182Y-7624888D02*
X1161658Y-7643936D01*
X1161658Y-7643936D02*
X1152134Y-7653460D01*
X1152134Y-7653460D02*
X1133086Y-7662984D01*
X1133086Y-7662984D02*
X1114039Y-7662984D01*
X1114039Y-7662984D02*
X1094991Y-7653460D01*
X1094991Y-7653460D02*
X1085467Y-7643936D01*
X1085467Y-7643936D02*
X1075944Y-7624888D01*
X1075944Y-7624888D02*
X1066420Y-7586793D01*
X1066420Y-7586793D02*
X1066420Y-7539174D01*
X1066420Y-7539174D02*
X1075944Y-7501079D01*
X1075944Y-7501079D02*
X1085467Y-7482031D01*
X1085467Y-7482031D02*
X1094991Y-7472508D01*
X1094991Y-7472508D02*
X1114039Y-7462984D01*
X1266420Y-7662984D02*
X1266420Y-7529650D01*
X1266420Y-7548698D02*
X1275944Y-7539174D01*
X1275944Y-7539174D02*
X1294991Y-7529650D01*
X1294991Y-7529650D02*
X1323563Y-7529650D01*
X1323563Y-7529650D02*
X1342610Y-7539174D01*
X1342610Y-7539174D02*
X1352134Y-7558222D01*
X1352134Y-7558222D02*
X1352134Y-7662984D01*
X1352134Y-7558222D02*
X1361658Y-7539174D01*
X1361658Y-7539174D02*
X1380705Y-7529650D01*
X1380705Y-7529650D02*
X1409277Y-7529650D01*
X1409277Y-7529650D02*
X1428324Y-7539174D01*
X1428324Y-7539174D02*
X1437848Y-7558222D01*
X1437848Y-7558222D02*
X1437848Y-7662984D01*
X1533086Y-7662984D02*
X1533086Y-7529650D01*
X1533086Y-7548698D02*
X1542610Y-7539174D01*
X1542610Y-7539174D02*
X1561658Y-7529650D01*
X1561658Y-7529650D02*
X1590229Y-7529650D01*
X1590229Y-7529650D02*
X1609277Y-7539174D01*
X1609277Y-7539174D02*
X1618801Y-7558222D01*
X1618801Y-7558222D02*
X1618801Y-7662984D01*
X1618801Y-7558222D02*
X1628324Y-7539174D01*
X1628324Y-7539174D02*
X1647372Y-7529650D01*
X1647372Y-7529650D02*
X1675943Y-7529650D01*
X1675943Y-7529650D02*
X1694991Y-7539174D01*
X1694991Y-7539174D02*
X1704515Y-7558222D01*
X1704515Y-7558222D02*
X1704515Y-7662984D01*
X2094991Y-7453460D02*
X1923563Y-7710603D01*
X2352134Y-7462984D02*
X2371182Y-7462984D01*
X2371182Y-7462984D02*
X2390229Y-7472508D01*
X2390229Y-7472508D02*
X2399753Y-7482031D01*
X2399753Y-7482031D02*
X2409277Y-7501079D01*
X2409277Y-7501079D02*
X2418801Y-7539174D01*
X2418801Y-7539174D02*
X2418801Y-7586793D01*
X2418801Y-7586793D02*
X2409277Y-7624888D01*
X2409277Y-7624888D02*
X2399753Y-7643936D01*
X2399753Y-7643936D02*
X2390229Y-7653460D01*
X2390229Y-7653460D02*
X2371182Y-7662984D01*
X2371182Y-7662984D02*
X2352134Y-7662984D01*
X2352134Y-7662984D02*
X2333087Y-7653460D01*
X2333087Y-7653460D02*
X2323563Y-7643936D01*
X2323563Y-7643936D02*
X2314039Y-7624888D01*
X2314039Y-7624888D02*
X2304515Y-7586793D01*
X2304515Y-7586793D02*
X2304515Y-7539174D01*
X2304515Y-7539174D02*
X2314039Y-7501079D01*
X2314039Y-7501079D02*
X2323563Y-7482031D01*
X2323563Y-7482031D02*
X2333087Y-7472508D01*
X2333087Y-7472508D02*
X2352134Y-7462984D01*
X2504515Y-7643936D02*
X2514039Y-7653460D01*
X2514039Y-7653460D02*
X2504515Y-7662984D01*
X2504515Y-7662984D02*
X2494991Y-7653460D01*
X2494991Y-7653460D02*
X2504515Y-7643936D01*
X2504515Y-7643936D02*
X2504515Y-7662984D01*
X2637848Y-7462984D02*
X2656896Y-7462984D01*
X2656896Y-7462984D02*
X2675944Y-7472508D01*
X2675944Y-7472508D02*
X2685468Y-7482031D01*
X2685468Y-7482031D02*
X2694991Y-7501079D01*
X2694991Y-7501079D02*
X2704515Y-7539174D01*
X2704515Y-7539174D02*
X2704515Y-7586793D01*
X2704515Y-7586793D02*
X2694991Y-7624888D01*
X2694991Y-7624888D02*
X2685468Y-7643936D01*
X2685468Y-7643936D02*
X2675944Y-7653460D01*
X2675944Y-7653460D02*
X2656896Y-7662984D01*
X2656896Y-7662984D02*
X2637848Y-7662984D01*
X2637848Y-7662984D02*
X2618801Y-7653460D01*
X2618801Y-7653460D02*
X2609277Y-7643936D01*
X2609277Y-7643936D02*
X2599753Y-7624888D01*
X2599753Y-7624888D02*
X2590229Y-7586793D01*
X2590229Y-7586793D02*
X2590229Y-7539174D01*
X2590229Y-7539174D02*
X2599753Y-7501079D01*
X2599753Y-7501079D02*
X2609277Y-7482031D01*
X2609277Y-7482031D02*
X2618801Y-7472508D01*
X2618801Y-7472508D02*
X2637848Y-7462984D01*
X2894991Y-7662984D02*
X2780706Y-7662984D01*
X2837848Y-7662984D02*
X2837848Y-7462984D01*
X2837848Y-7462984D02*
X2818801Y-7491555D01*
X2818801Y-7491555D02*
X2799753Y-7510603D01*
X2799753Y-7510603D02*
X2780706Y-7520127D01*
X3085467Y-7662984D02*
X2971182Y-7662984D01*
X3028325Y-7662984D02*
X3028325Y-7462984D01*
X3028325Y-7462984D02*
X3009277Y-7491555D01*
X3009277Y-7491555D02*
X2990229Y-7510603D01*
X2990229Y-7510603D02*
X2971182Y-7520127D01*
X3199753Y-7548698D02*
X3180706Y-7539174D01*
X3180706Y-7539174D02*
X3171182Y-7529650D01*
X3171182Y-7529650D02*
X3161658Y-7510603D01*
X3161658Y-7510603D02*
X3161658Y-7501079D01*
X3161658Y-7501079D02*
X3171182Y-7482031D01*
X3171182Y-7482031D02*
X3180706Y-7472508D01*
X3180706Y-7472508D02*
X3199753Y-7462984D01*
X3199753Y-7462984D02*
X3237848Y-7462984D01*
X3237848Y-7462984D02*
X3256896Y-7472508D01*
X3256896Y-7472508D02*
X3266420Y-7482031D01*
X3266420Y-7482031D02*
X3275944Y-7501079D01*
X3275944Y-7501079D02*
X3275944Y-7510603D01*
X3275944Y-7510603D02*
X3266420Y-7529650D01*
X3266420Y-7529650D02*
X3256896Y-7539174D01*
X3256896Y-7539174D02*
X3237848Y-7548698D01*
X3237848Y-7548698D02*
X3199753Y-7548698D01*
X3199753Y-7548698D02*
X3180706Y-7558222D01*
X3180706Y-7558222D02*
X3171182Y-7567746D01*
X3171182Y-7567746D02*
X3161658Y-7586793D01*
X3161658Y-7586793D02*
X3161658Y-7624888D01*
X3161658Y-7624888D02*
X3171182Y-7643936D01*
X3171182Y-7643936D02*
X3180706Y-7653460D01*
X3180706Y-7653460D02*
X3199753Y-7662984D01*
X3199753Y-7662984D02*
X3237848Y-7662984D01*
X3237848Y-7662984D02*
X3256896Y-7653460D01*
X3256896Y-7653460D02*
X3266420Y-7643936D01*
X3266420Y-7643936D02*
X3275944Y-7624888D01*
X3275944Y-7624888D02*
X3275944Y-7586793D01*
X3275944Y-7586793D02*
X3266420Y-7567746D01*
X3266420Y-7567746D02*
X3256896Y-7558222D01*
X3256896Y-7558222D02*
X3237848Y-7548698D01*
X3352134Y-7462984D02*
X3352134Y-7501079D01*
X3428325Y-7462984D02*
X3428325Y-7501079D01*
X3723563Y-7739174D02*
X3714039Y-7729650D01*
X3714039Y-7729650D02*
X3694991Y-7701079D01*
X3694991Y-7701079D02*
X3685468Y-7682031D01*
X3685468Y-7682031D02*
X3675944Y-7653460D01*
X3675944Y-7653460D02*
X3666420Y-7605841D01*
X3666420Y-7605841D02*
X3666420Y-7567746D01*
X3666420Y-7567746D02*
X3675944Y-7520127D01*
X3675944Y-7520127D02*
X3685468Y-7491555D01*
X3685468Y-7491555D02*
X3694991Y-7472508D01*
X3694991Y-7472508D02*
X3714039Y-7443936D01*
X3714039Y-7443936D02*
X3723563Y-7434412D01*
X3790229Y-7482031D02*
X3799753Y-7472508D01*
X3799753Y-7472508D02*
X3818801Y-7462984D01*
X3818801Y-7462984D02*
X3866420Y-7462984D01*
X3866420Y-7462984D02*
X3885468Y-7472508D01*
X3885468Y-7472508D02*
X3894991Y-7482031D01*
X3894991Y-7482031D02*
X3904515Y-7501079D01*
X3904515Y-7501079D02*
X3904515Y-7520127D01*
X3904515Y-7520127D02*
X3894991Y-7548698D01*
X3894991Y-7548698D02*
X3780706Y-7662984D01*
X3780706Y-7662984D02*
X3904515Y-7662984D01*
X4142610Y-7662984D02*
X4142610Y-7462984D01*
X4228325Y-7662984D02*
X4228325Y-7558222D01*
X4228325Y-7558222D02*
X4218801Y-7539174D01*
X4218801Y-7539174D02*
X4199753Y-7529650D01*
X4199753Y-7529650D02*
X4171182Y-7529650D01*
X4171182Y-7529650D02*
X4152134Y-7539174D01*
X4152134Y-7539174D02*
X4142610Y-7548698D01*
X4352134Y-7662984D02*
X4333087Y-7653460D01*
X4333087Y-7653460D02*
X4323563Y-7643936D01*
X4323563Y-7643936D02*
X4314039Y-7624888D01*
X4314039Y-7624888D02*
X4314039Y-7567746D01*
X4314039Y-7567746D02*
X4323563Y-7548698D01*
X4323563Y-7548698D02*
X4333087Y-7539174D01*
X4333087Y-7539174D02*
X4352134Y-7529650D01*
X4352134Y-7529650D02*
X4380706Y-7529650D01*
X4380706Y-7529650D02*
X4399753Y-7539174D01*
X4399753Y-7539174D02*
X4409277Y-7548698D01*
X4409277Y-7548698D02*
X4418801Y-7567746D01*
X4418801Y-7567746D02*
X4418801Y-7624888D01*
X4418801Y-7624888D02*
X4409277Y-7643936D01*
X4409277Y-7643936D02*
X4399753Y-7653460D01*
X4399753Y-7653460D02*
X4380706Y-7662984D01*
X4380706Y-7662984D02*
X4352134Y-7662984D01*
X4533087Y-7662984D02*
X4514039Y-7653460D01*
X4514039Y-7653460D02*
X4504515Y-7634412D01*
X4504515Y-7634412D02*
X4504515Y-7462984D01*
X4685468Y-7653460D02*
X4666420Y-7662984D01*
X4666420Y-7662984D02*
X4628325Y-7662984D01*
X4628325Y-7662984D02*
X4609277Y-7653460D01*
X4609277Y-7653460D02*
X4599753Y-7634412D01*
X4599753Y-7634412D02*
X4599753Y-7558222D01*
X4599753Y-7558222D02*
X4609277Y-7539174D01*
X4609277Y-7539174D02*
X4628325Y-7529650D01*
X4628325Y-7529650D02*
X4666420Y-7529650D01*
X4666420Y-7529650D02*
X4685468Y-7539174D01*
X4685468Y-7539174D02*
X4694992Y-7558222D01*
X4694992Y-7558222D02*
X4694992Y-7577269D01*
X4694992Y-7577269D02*
X4599753Y-7596317D01*
X4771182Y-7653460D02*
X4790230Y-7662984D01*
X4790230Y-7662984D02*
X4828325Y-7662984D01*
X4828325Y-7662984D02*
X4847373Y-7653460D01*
X4847373Y-7653460D02*
X4856896Y-7634412D01*
X4856896Y-7634412D02*
X4856896Y-7624888D01*
X4856896Y-7624888D02*
X4847373Y-7605841D01*
X4847373Y-7605841D02*
X4828325Y-7596317D01*
X4828325Y-7596317D02*
X4799753Y-7596317D01*
X4799753Y-7596317D02*
X4780706Y-7586793D01*
X4780706Y-7586793D02*
X4771182Y-7567746D01*
X4771182Y-7567746D02*
X4771182Y-7558222D01*
X4771182Y-7558222D02*
X4780706Y-7539174D01*
X4780706Y-7539174D02*
X4799753Y-7529650D01*
X4799753Y-7529650D02*
X4828325Y-7529650D01*
X4828325Y-7529650D02*
X4847373Y-7539174D01*
X4923563Y-7739174D02*
X4933087Y-7729650D01*
X4933087Y-7729650D02*
X4952134Y-7701079D01*
X4952134Y-7701079D02*
X4961658Y-7682031D01*
X4961658Y-7682031D02*
X4971182Y-7653460D01*
X4971182Y-7653460D02*
X4980706Y-7605841D01*
X4980706Y-7605841D02*
X4980706Y-7567746D01*
X4980706Y-7567746D02*
X4971182Y-7520127D01*
X4971182Y-7520127D02*
X4961658Y-7491555D01*
X4961658Y-7491555D02*
X4952134Y-7472508D01*
X4952134Y-7472508D02*
X4933087Y-7443936D01*
X4933087Y-7443936D02*
X4923563Y-7434412D01*
D12*
X148500Y-7835500D02*
G75*
G02*
X88500Y-7835500I-30000J0D01*
G01*
X88500Y-7835500D02*
G75*
G02*
X148500Y-7835500I30000J0D01*
G01*
D11*
X447372Y-7726984D02*
X466420Y-7726984D01*
X466420Y-7726984D02*
X485467Y-7736508D01*
X485467Y-7736508D02*
X494991Y-7746031D01*
X494991Y-7746031D02*
X504515Y-7765079D01*
X504515Y-7765079D02*
X514039Y-7803174D01*
X514039Y-7803174D02*
X514039Y-7850793D01*
X514039Y-7850793D02*
X504515Y-7888888D01*
X504515Y-7888888D02*
X494991Y-7907936D01*
X494991Y-7907936D02*
X485467Y-7917460D01*
X485467Y-7917460D02*
X466420Y-7926984D01*
X466420Y-7926984D02*
X447372Y-7926984D01*
X447372Y-7926984D02*
X428324Y-7917460D01*
X428324Y-7917460D02*
X418801Y-7907936D01*
X418801Y-7907936D02*
X409277Y-7888888D01*
X409277Y-7888888D02*
X399753Y-7850793D01*
X399753Y-7850793D02*
X399753Y-7803174D01*
X399753Y-7803174D02*
X409277Y-7765079D01*
X409277Y-7765079D02*
X418801Y-7746031D01*
X418801Y-7746031D02*
X428324Y-7736508D01*
X428324Y-7736508D02*
X447372Y-7726984D01*
X599753Y-7907936D02*
X609277Y-7917460D01*
X609277Y-7917460D02*
X599753Y-7926984D01*
X599753Y-7926984D02*
X590229Y-7917460D01*
X590229Y-7917460D02*
X599753Y-7907936D01*
X599753Y-7907936D02*
X599753Y-7926984D01*
X780705Y-7726984D02*
X742610Y-7726984D01*
X742610Y-7726984D02*
X723562Y-7736508D01*
X723562Y-7736508D02*
X714039Y-7746031D01*
X714039Y-7746031D02*
X694991Y-7774603D01*
X694991Y-7774603D02*
X685467Y-7812698D01*
X685467Y-7812698D02*
X685467Y-7888888D01*
X685467Y-7888888D02*
X694991Y-7907936D01*
X694991Y-7907936D02*
X704515Y-7917460D01*
X704515Y-7917460D02*
X723562Y-7926984D01*
X723562Y-7926984D02*
X761658Y-7926984D01*
X761658Y-7926984D02*
X780705Y-7917460D01*
X780705Y-7917460D02*
X790229Y-7907936D01*
X790229Y-7907936D02*
X799753Y-7888888D01*
X799753Y-7888888D02*
X799753Y-7841269D01*
X799753Y-7841269D02*
X790229Y-7822222D01*
X790229Y-7822222D02*
X780705Y-7812698D01*
X780705Y-7812698D02*
X761658Y-7803174D01*
X761658Y-7803174D02*
X723562Y-7803174D01*
X723562Y-7803174D02*
X704515Y-7812698D01*
X704515Y-7812698D02*
X694991Y-7822222D01*
X694991Y-7822222D02*
X685467Y-7841269D01*
X923562Y-7726984D02*
X942610Y-7726984D01*
X942610Y-7726984D02*
X961658Y-7736508D01*
X961658Y-7736508D02*
X971182Y-7746031D01*
X971182Y-7746031D02*
X980705Y-7765079D01*
X980705Y-7765079D02*
X990229Y-7803174D01*
X990229Y-7803174D02*
X990229Y-7850793D01*
X990229Y-7850793D02*
X980705Y-7888888D01*
X980705Y-7888888D02*
X971182Y-7907936D01*
X971182Y-7907936D02*
X961658Y-7917460D01*
X961658Y-7917460D02*
X942610Y-7926984D01*
X942610Y-7926984D02*
X923562Y-7926984D01*
X923562Y-7926984D02*
X904515Y-7917460D01*
X904515Y-7917460D02*
X894991Y-7907936D01*
X894991Y-7907936D02*
X885467Y-7888888D01*
X885467Y-7888888D02*
X875943Y-7850793D01*
X875943Y-7850793D02*
X875943Y-7803174D01*
X875943Y-7803174D02*
X885467Y-7765079D01*
X885467Y-7765079D02*
X894991Y-7746031D01*
X894991Y-7746031D02*
X904515Y-7736508D01*
X904515Y-7736508D02*
X923562Y-7726984D01*
X1114039Y-7726984D02*
X1133086Y-7726984D01*
X1133086Y-7726984D02*
X1152134Y-7736508D01*
X1152134Y-7736508D02*
X1161658Y-7746031D01*
X1161658Y-7746031D02*
X1171182Y-7765079D01*
X1171182Y-7765079D02*
X1180705Y-7803174D01*
X1180705Y-7803174D02*
X1180705Y-7850793D01*
X1180705Y-7850793D02*
X1171182Y-7888888D01*
X1171182Y-7888888D02*
X1161658Y-7907936D01*
X1161658Y-7907936D02*
X1152134Y-7917460D01*
X1152134Y-7917460D02*
X1133086Y-7926984D01*
X1133086Y-7926984D02*
X1114039Y-7926984D01*
X1114039Y-7926984D02*
X1094991Y-7917460D01*
X1094991Y-7917460D02*
X1085467Y-7907936D01*
X1085467Y-7907936D02*
X1075944Y-7888888D01*
X1075944Y-7888888D02*
X1066420Y-7850793D01*
X1066420Y-7850793D02*
X1066420Y-7803174D01*
X1066420Y-7803174D02*
X1075944Y-7765079D01*
X1075944Y-7765079D02*
X1085467Y-7746031D01*
X1085467Y-7746031D02*
X1094991Y-7736508D01*
X1094991Y-7736508D02*
X1114039Y-7726984D01*
X1266420Y-7926984D02*
X1266420Y-7793650D01*
X1266420Y-7812698D02*
X1275944Y-7803174D01*
X1275944Y-7803174D02*
X1294991Y-7793650D01*
X1294991Y-7793650D02*
X1323563Y-7793650D01*
X1323563Y-7793650D02*
X1342610Y-7803174D01*
X1342610Y-7803174D02*
X1352134Y-7822222D01*
X1352134Y-7822222D02*
X1352134Y-7926984D01*
X1352134Y-7822222D02*
X1361658Y-7803174D01*
X1361658Y-7803174D02*
X1380705Y-7793650D01*
X1380705Y-7793650D02*
X1409277Y-7793650D01*
X1409277Y-7793650D02*
X1428324Y-7803174D01*
X1428324Y-7803174D02*
X1437848Y-7822222D01*
X1437848Y-7822222D02*
X1437848Y-7926984D01*
X1533086Y-7926984D02*
X1533086Y-7793650D01*
X1533086Y-7812698D02*
X1542610Y-7803174D01*
X1542610Y-7803174D02*
X1561658Y-7793650D01*
X1561658Y-7793650D02*
X1590229Y-7793650D01*
X1590229Y-7793650D02*
X1609277Y-7803174D01*
X1609277Y-7803174D02*
X1618801Y-7822222D01*
X1618801Y-7822222D02*
X1618801Y-7926984D01*
X1618801Y-7822222D02*
X1628324Y-7803174D01*
X1628324Y-7803174D02*
X1647372Y-7793650D01*
X1647372Y-7793650D02*
X1675943Y-7793650D01*
X1675943Y-7793650D02*
X1694991Y-7803174D01*
X1694991Y-7803174D02*
X1704515Y-7822222D01*
X1704515Y-7822222D02*
X1704515Y-7926984D01*
X2094991Y-7717460D02*
X1923563Y-7974603D01*
X2352134Y-7726984D02*
X2371182Y-7726984D01*
X2371182Y-7726984D02*
X2390229Y-7736508D01*
X2390229Y-7736508D02*
X2399753Y-7746031D01*
X2399753Y-7746031D02*
X2409277Y-7765079D01*
X2409277Y-7765079D02*
X2418801Y-7803174D01*
X2418801Y-7803174D02*
X2418801Y-7850793D01*
X2418801Y-7850793D02*
X2409277Y-7888888D01*
X2409277Y-7888888D02*
X2399753Y-7907936D01*
X2399753Y-7907936D02*
X2390229Y-7917460D01*
X2390229Y-7917460D02*
X2371182Y-7926984D01*
X2371182Y-7926984D02*
X2352134Y-7926984D01*
X2352134Y-7926984D02*
X2333087Y-7917460D01*
X2333087Y-7917460D02*
X2323563Y-7907936D01*
X2323563Y-7907936D02*
X2314039Y-7888888D01*
X2314039Y-7888888D02*
X2304515Y-7850793D01*
X2304515Y-7850793D02*
X2304515Y-7803174D01*
X2304515Y-7803174D02*
X2314039Y-7765079D01*
X2314039Y-7765079D02*
X2323563Y-7746031D01*
X2323563Y-7746031D02*
X2333087Y-7736508D01*
X2333087Y-7736508D02*
X2352134Y-7726984D01*
X2504515Y-7907936D02*
X2514039Y-7917460D01*
X2514039Y-7917460D02*
X2504515Y-7926984D01*
X2504515Y-7926984D02*
X2494991Y-7917460D01*
X2494991Y-7917460D02*
X2504515Y-7907936D01*
X2504515Y-7907936D02*
X2504515Y-7926984D01*
X2637848Y-7726984D02*
X2656896Y-7726984D01*
X2656896Y-7726984D02*
X2675944Y-7736508D01*
X2675944Y-7736508D02*
X2685468Y-7746031D01*
X2685468Y-7746031D02*
X2694991Y-7765079D01*
X2694991Y-7765079D02*
X2704515Y-7803174D01*
X2704515Y-7803174D02*
X2704515Y-7850793D01*
X2704515Y-7850793D02*
X2694991Y-7888888D01*
X2694991Y-7888888D02*
X2685468Y-7907936D01*
X2685468Y-7907936D02*
X2675944Y-7917460D01*
X2675944Y-7917460D02*
X2656896Y-7926984D01*
X2656896Y-7926984D02*
X2637848Y-7926984D01*
X2637848Y-7926984D02*
X2618801Y-7917460D01*
X2618801Y-7917460D02*
X2609277Y-7907936D01*
X2609277Y-7907936D02*
X2599753Y-7888888D01*
X2599753Y-7888888D02*
X2590229Y-7850793D01*
X2590229Y-7850793D02*
X2590229Y-7803174D01*
X2590229Y-7803174D02*
X2599753Y-7765079D01*
X2599753Y-7765079D02*
X2609277Y-7746031D01*
X2609277Y-7746031D02*
X2618801Y-7736508D01*
X2618801Y-7736508D02*
X2637848Y-7726984D01*
X2780706Y-7746031D02*
X2790229Y-7736508D01*
X2790229Y-7736508D02*
X2809277Y-7726984D01*
X2809277Y-7726984D02*
X2856896Y-7726984D01*
X2856896Y-7726984D02*
X2875944Y-7736508D01*
X2875944Y-7736508D02*
X2885467Y-7746031D01*
X2885467Y-7746031D02*
X2894991Y-7765079D01*
X2894991Y-7765079D02*
X2894991Y-7784127D01*
X2894991Y-7784127D02*
X2885467Y-7812698D01*
X2885467Y-7812698D02*
X2771182Y-7926984D01*
X2771182Y-7926984D02*
X2894991Y-7926984D01*
X2961658Y-7726984D02*
X3085467Y-7726984D01*
X3085467Y-7726984D02*
X3018801Y-7803174D01*
X3018801Y-7803174D02*
X3047372Y-7803174D01*
X3047372Y-7803174D02*
X3066420Y-7812698D01*
X3066420Y-7812698D02*
X3075944Y-7822222D01*
X3075944Y-7822222D02*
X3085467Y-7841269D01*
X3085467Y-7841269D02*
X3085467Y-7888888D01*
X3085467Y-7888888D02*
X3075944Y-7907936D01*
X3075944Y-7907936D02*
X3066420Y-7917460D01*
X3066420Y-7917460D02*
X3047372Y-7926984D01*
X3047372Y-7926984D02*
X2990229Y-7926984D01*
X2990229Y-7926984D02*
X2971182Y-7917460D01*
X2971182Y-7917460D02*
X2961658Y-7907936D01*
X3256896Y-7726984D02*
X3218801Y-7726984D01*
X3218801Y-7726984D02*
X3199753Y-7736508D01*
X3199753Y-7736508D02*
X3190229Y-7746031D01*
X3190229Y-7746031D02*
X3171182Y-7774603D01*
X3171182Y-7774603D02*
X3161658Y-7812698D01*
X3161658Y-7812698D02*
X3161658Y-7888888D01*
X3161658Y-7888888D02*
X3171182Y-7907936D01*
X3171182Y-7907936D02*
X3180706Y-7917460D01*
X3180706Y-7917460D02*
X3199753Y-7926984D01*
X3199753Y-7926984D02*
X3237848Y-7926984D01*
X3237848Y-7926984D02*
X3256896Y-7917460D01*
X3256896Y-7917460D02*
X3266420Y-7907936D01*
X3266420Y-7907936D02*
X3275944Y-7888888D01*
X3275944Y-7888888D02*
X3275944Y-7841269D01*
X3275944Y-7841269D02*
X3266420Y-7822222D01*
X3266420Y-7822222D02*
X3256896Y-7812698D01*
X3256896Y-7812698D02*
X3237848Y-7803174D01*
X3237848Y-7803174D02*
X3199753Y-7803174D01*
X3199753Y-7803174D02*
X3180706Y-7812698D01*
X3180706Y-7812698D02*
X3171182Y-7822222D01*
X3171182Y-7822222D02*
X3161658Y-7841269D01*
X3352134Y-7726984D02*
X3352134Y-7765079D01*
X3428325Y-7726984D02*
X3428325Y-7765079D01*
X3723563Y-8003174D02*
X3714039Y-7993650D01*
X3714039Y-7993650D02*
X3694991Y-7965079D01*
X3694991Y-7965079D02*
X3685468Y-7946031D01*
X3685468Y-7946031D02*
X3675944Y-7917460D01*
X3675944Y-7917460D02*
X3666420Y-7869841D01*
X3666420Y-7869841D02*
X3666420Y-7831746D01*
X3666420Y-7831746D02*
X3675944Y-7784127D01*
X3675944Y-7784127D02*
X3685468Y-7755555D01*
X3685468Y-7755555D02*
X3694991Y-7736508D01*
X3694991Y-7736508D02*
X3714039Y-7707936D01*
X3714039Y-7707936D02*
X3723563Y-7698412D01*
X3837848Y-7726984D02*
X3856896Y-7726984D01*
X3856896Y-7726984D02*
X3875944Y-7736508D01*
X3875944Y-7736508D02*
X3885468Y-7746031D01*
X3885468Y-7746031D02*
X3894991Y-7765079D01*
X3894991Y-7765079D02*
X3904515Y-7803174D01*
X3904515Y-7803174D02*
X3904515Y-7850793D01*
X3904515Y-7850793D02*
X3894991Y-7888888D01*
X3894991Y-7888888D02*
X3885468Y-7907936D01*
X3885468Y-7907936D02*
X3875944Y-7917460D01*
X3875944Y-7917460D02*
X3856896Y-7926984D01*
X3856896Y-7926984D02*
X3837848Y-7926984D01*
X3837848Y-7926984D02*
X3818801Y-7917460D01*
X3818801Y-7917460D02*
X3809277Y-7907936D01*
X3809277Y-7907936D02*
X3799753Y-7888888D01*
X3799753Y-7888888D02*
X3790229Y-7850793D01*
X3790229Y-7850793D02*
X3790229Y-7803174D01*
X3790229Y-7803174D02*
X3799753Y-7765079D01*
X3799753Y-7765079D02*
X3809277Y-7746031D01*
X3809277Y-7746031D02*
X3818801Y-7736508D01*
X3818801Y-7736508D02*
X3837848Y-7726984D01*
X4142610Y-7926984D02*
X4142610Y-7726984D01*
X4228325Y-7926984D02*
X4228325Y-7822222D01*
X4228325Y-7822222D02*
X4218801Y-7803174D01*
X4218801Y-7803174D02*
X4199753Y-7793650D01*
X4199753Y-7793650D02*
X4171182Y-7793650D01*
X4171182Y-7793650D02*
X4152134Y-7803174D01*
X4152134Y-7803174D02*
X4142610Y-7812698D01*
X4352134Y-7926984D02*
X4333087Y-7917460D01*
X4333087Y-7917460D02*
X4323563Y-7907936D01*
X4323563Y-7907936D02*
X4314039Y-7888888D01*
X4314039Y-7888888D02*
X4314039Y-7831746D01*
X4314039Y-7831746D02*
X4323563Y-7812698D01*
X4323563Y-7812698D02*
X4333087Y-7803174D01*
X4333087Y-7803174D02*
X4352134Y-7793650D01*
X4352134Y-7793650D02*
X4380706Y-7793650D01*
X4380706Y-7793650D02*
X4399753Y-7803174D01*
X4399753Y-7803174D02*
X4409277Y-7812698D01*
X4409277Y-7812698D02*
X4418801Y-7831746D01*
X4418801Y-7831746D02*
X4418801Y-7888888D01*
X4418801Y-7888888D02*
X4409277Y-7907936D01*
X4409277Y-7907936D02*
X4399753Y-7917460D01*
X4399753Y-7917460D02*
X4380706Y-7926984D01*
X4380706Y-7926984D02*
X4352134Y-7926984D01*
X4533087Y-7926984D02*
X4514039Y-7917460D01*
X4514039Y-7917460D02*
X4504515Y-7898412D01*
X4504515Y-7898412D02*
X4504515Y-7726984D01*
X4685468Y-7917460D02*
X4666420Y-7926984D01*
X4666420Y-7926984D02*
X4628325Y-7926984D01*
X4628325Y-7926984D02*
X4609277Y-7917460D01*
X4609277Y-7917460D02*
X4599753Y-7898412D01*
X4599753Y-7898412D02*
X4599753Y-7822222D01*
X4599753Y-7822222D02*
X4609277Y-7803174D01*
X4609277Y-7803174D02*
X4628325Y-7793650D01*
X4628325Y-7793650D02*
X4666420Y-7793650D01*
X4666420Y-7793650D02*
X4685468Y-7803174D01*
X4685468Y-7803174D02*
X4694992Y-7822222D01*
X4694992Y-7822222D02*
X4694992Y-7841269D01*
X4694992Y-7841269D02*
X4599753Y-7860317D01*
X4771182Y-7917460D02*
X4790230Y-7926984D01*
X4790230Y-7926984D02*
X4828325Y-7926984D01*
X4828325Y-7926984D02*
X4847373Y-7917460D01*
X4847373Y-7917460D02*
X4856896Y-7898412D01*
X4856896Y-7898412D02*
X4856896Y-7888888D01*
X4856896Y-7888888D02*
X4847373Y-7869841D01*
X4847373Y-7869841D02*
X4828325Y-7860317D01*
X4828325Y-7860317D02*
X4799753Y-7860317D01*
X4799753Y-7860317D02*
X4780706Y-7850793D01*
X4780706Y-7850793D02*
X4771182Y-7831746D01*
X4771182Y-7831746D02*
X4771182Y-7822222D01*
X4771182Y-7822222D02*
X4780706Y-7803174D01*
X4780706Y-7803174D02*
X4799753Y-7793650D01*
X4799753Y-7793650D02*
X4828325Y-7793650D01*
X4828325Y-7793650D02*
X4847373Y-7803174D01*
X5094992Y-7850793D02*
X5247373Y-7850793D01*
X5171182Y-7926984D02*
X5171182Y-7774603D01*
X5580706Y-7793650D02*
X5580706Y-7926984D01*
X5533087Y-7717460D02*
X5485468Y-7860317D01*
X5485468Y-7860317D02*
X5609277Y-7860317D01*
X5828325Y-7917460D02*
X5847373Y-7926984D01*
X5847373Y-7926984D02*
X5885468Y-7926984D01*
X5885468Y-7926984D02*
X5904515Y-7917460D01*
X5904515Y-7917460D02*
X5914039Y-7898412D01*
X5914039Y-7898412D02*
X5914039Y-7888888D01*
X5914039Y-7888888D02*
X5904515Y-7869841D01*
X5904515Y-7869841D02*
X5885468Y-7860317D01*
X5885468Y-7860317D02*
X5856896Y-7860317D01*
X5856896Y-7860317D02*
X5837849Y-7850793D01*
X5837849Y-7850793D02*
X5828325Y-7831746D01*
X5828325Y-7831746D02*
X5828325Y-7822222D01*
X5828325Y-7822222D02*
X5837849Y-7803174D01*
X5837849Y-7803174D02*
X5856896Y-7793650D01*
X5856896Y-7793650D02*
X5885468Y-7793650D01*
X5885468Y-7793650D02*
X5904515Y-7803174D01*
X6028325Y-7926984D02*
X6009277Y-7917460D01*
X6009277Y-7917460D02*
X5999754Y-7898412D01*
X5999754Y-7898412D02*
X5999754Y-7726984D01*
X6133087Y-7926984D02*
X6114039Y-7917460D01*
X6114039Y-7917460D02*
X6104515Y-7907936D01*
X6104515Y-7907936D02*
X6094992Y-7888888D01*
X6094992Y-7888888D02*
X6094992Y-7831746D01*
X6094992Y-7831746D02*
X6104515Y-7812698D01*
X6104515Y-7812698D02*
X6114039Y-7803174D01*
X6114039Y-7803174D02*
X6133087Y-7793650D01*
X6133087Y-7793650D02*
X6161658Y-7793650D01*
X6161658Y-7793650D02*
X6180706Y-7803174D01*
X6180706Y-7803174D02*
X6190230Y-7812698D01*
X6190230Y-7812698D02*
X6199754Y-7831746D01*
X6199754Y-7831746D02*
X6199754Y-7888888D01*
X6199754Y-7888888D02*
X6190230Y-7907936D01*
X6190230Y-7907936D02*
X6180706Y-7917460D01*
X6180706Y-7917460D02*
X6161658Y-7926984D01*
X6161658Y-7926984D02*
X6133087Y-7926984D01*
X6256896Y-7793650D02*
X6333087Y-7793650D01*
X6285468Y-7726984D02*
X6285468Y-7898412D01*
X6285468Y-7898412D02*
X6294992Y-7917460D01*
X6294992Y-7917460D02*
X6314039Y-7926984D01*
X6314039Y-7926984D02*
X6333087Y-7926984D01*
X6390230Y-7917460D02*
X6409277Y-7926984D01*
X6409277Y-7926984D02*
X6447373Y-7926984D01*
X6447373Y-7926984D02*
X6466420Y-7917460D01*
X6466420Y-7917460D02*
X6475944Y-7898412D01*
X6475944Y-7898412D02*
X6475944Y-7888888D01*
X6475944Y-7888888D02*
X6466420Y-7869841D01*
X6466420Y-7869841D02*
X6447373Y-7860317D01*
X6447373Y-7860317D02*
X6418801Y-7860317D01*
X6418801Y-7860317D02*
X6399754Y-7850793D01*
X6399754Y-7850793D02*
X6390230Y-7831746D01*
X6390230Y-7831746D02*
X6390230Y-7822222D01*
X6390230Y-7822222D02*
X6399754Y-7803174D01*
X6399754Y-7803174D02*
X6418801Y-7793650D01*
X6418801Y-7793650D02*
X6447373Y-7793650D01*
X6447373Y-7793650D02*
X6466420Y-7803174D01*
X6542611Y-8003174D02*
X6552135Y-7993650D01*
X6552135Y-7993650D02*
X6571182Y-7965079D01*
X6571182Y-7965079D02*
X6580706Y-7946031D01*
X6580706Y-7946031D02*
X6590230Y-7917460D01*
X6590230Y-7917460D02*
X6599754Y-7869841D01*
X6599754Y-7869841D02*
X6599754Y-7831746D01*
X6599754Y-7831746D02*
X6590230Y-7784127D01*
X6590230Y-7784127D02*
X6580706Y-7755555D01*
X6580706Y-7755555D02*
X6571182Y-7736508D01*
X6571182Y-7736508D02*
X6552135Y-7707936D01*
X6552135Y-7707936D02*
X6542611Y-7698412D01*
D12*
X101000Y-8052000D02*
X101000Y-8147000D01*
X53500Y-8099500D02*
X148500Y-8099500D01*
D11*
X447372Y-7990984D02*
X466420Y-7990984D01*
X466420Y-7990984D02*
X485467Y-8000508D01*
X485467Y-8000508D02*
X494991Y-8010031D01*
X494991Y-8010031D02*
X504515Y-8029079D01*
X504515Y-8029079D02*
X514039Y-8067174D01*
X514039Y-8067174D02*
X514039Y-8114793D01*
X514039Y-8114793D02*
X504515Y-8152888D01*
X504515Y-8152888D02*
X494991Y-8171936D01*
X494991Y-8171936D02*
X485467Y-8181460D01*
X485467Y-8181460D02*
X466420Y-8190984D01*
X466420Y-8190984D02*
X447372Y-8190984D01*
X447372Y-8190984D02*
X428324Y-8181460D01*
X428324Y-8181460D02*
X418801Y-8171936D01*
X418801Y-8171936D02*
X409277Y-8152888D01*
X409277Y-8152888D02*
X399753Y-8114793D01*
X399753Y-8114793D02*
X399753Y-8067174D01*
X399753Y-8067174D02*
X409277Y-8029079D01*
X409277Y-8029079D02*
X418801Y-8010031D01*
X418801Y-8010031D02*
X428324Y-8000508D01*
X428324Y-8000508D02*
X447372Y-7990984D01*
X599753Y-8171936D02*
X609277Y-8181460D01*
X609277Y-8181460D02*
X599753Y-8190984D01*
X599753Y-8190984D02*
X590229Y-8181460D01*
X590229Y-8181460D02*
X599753Y-8171936D01*
X599753Y-8171936D02*
X599753Y-8190984D01*
X704515Y-8190984D02*
X742610Y-8190984D01*
X742610Y-8190984D02*
X761658Y-8181460D01*
X761658Y-8181460D02*
X771182Y-8171936D01*
X771182Y-8171936D02*
X790229Y-8143365D01*
X790229Y-8143365D02*
X799753Y-8105269D01*
X799753Y-8105269D02*
X799753Y-8029079D01*
X799753Y-8029079D02*
X790229Y-8010031D01*
X790229Y-8010031D02*
X780705Y-8000508D01*
X780705Y-8000508D02*
X761658Y-7990984D01*
X761658Y-7990984D02*
X723562Y-7990984D01*
X723562Y-7990984D02*
X704515Y-8000508D01*
X704515Y-8000508D02*
X694991Y-8010031D01*
X694991Y-8010031D02*
X685467Y-8029079D01*
X685467Y-8029079D02*
X685467Y-8076698D01*
X685467Y-8076698D02*
X694991Y-8095746D01*
X694991Y-8095746D02*
X704515Y-8105269D01*
X704515Y-8105269D02*
X723562Y-8114793D01*
X723562Y-8114793D02*
X761658Y-8114793D01*
X761658Y-8114793D02*
X780705Y-8105269D01*
X780705Y-8105269D02*
X790229Y-8095746D01*
X790229Y-8095746D02*
X799753Y-8076698D01*
X980705Y-7990984D02*
X885467Y-7990984D01*
X885467Y-7990984D02*
X875943Y-8086222D01*
X875943Y-8086222D02*
X885467Y-8076698D01*
X885467Y-8076698D02*
X904515Y-8067174D01*
X904515Y-8067174D02*
X952134Y-8067174D01*
X952134Y-8067174D02*
X971182Y-8076698D01*
X971182Y-8076698D02*
X980705Y-8086222D01*
X980705Y-8086222D02*
X990229Y-8105269D01*
X990229Y-8105269D02*
X990229Y-8152888D01*
X990229Y-8152888D02*
X980705Y-8171936D01*
X980705Y-8171936D02*
X971182Y-8181460D01*
X971182Y-8181460D02*
X952134Y-8190984D01*
X952134Y-8190984D02*
X904515Y-8190984D01*
X904515Y-8190984D02*
X885467Y-8181460D01*
X885467Y-8181460D02*
X875943Y-8171936D01*
X1114039Y-7990984D02*
X1133086Y-7990984D01*
X1133086Y-7990984D02*
X1152134Y-8000508D01*
X1152134Y-8000508D02*
X1161658Y-8010031D01*
X1161658Y-8010031D02*
X1171182Y-8029079D01*
X1171182Y-8029079D02*
X1180705Y-8067174D01*
X1180705Y-8067174D02*
X1180705Y-8114793D01*
X1180705Y-8114793D02*
X1171182Y-8152888D01*
X1171182Y-8152888D02*
X1161658Y-8171936D01*
X1161658Y-8171936D02*
X1152134Y-8181460D01*
X1152134Y-8181460D02*
X1133086Y-8190984D01*
X1133086Y-8190984D02*
X1114039Y-8190984D01*
X1114039Y-8190984D02*
X1094991Y-8181460D01*
X1094991Y-8181460D02*
X1085467Y-8171936D01*
X1085467Y-8171936D02*
X1075944Y-8152888D01*
X1075944Y-8152888D02*
X1066420Y-8114793D01*
X1066420Y-8114793D02*
X1066420Y-8067174D01*
X1066420Y-8067174D02*
X1075944Y-8029079D01*
X1075944Y-8029079D02*
X1085467Y-8010031D01*
X1085467Y-8010031D02*
X1094991Y-8000508D01*
X1094991Y-8000508D02*
X1114039Y-7990984D01*
X1266420Y-8190984D02*
X1266420Y-8057650D01*
X1266420Y-8076698D02*
X1275944Y-8067174D01*
X1275944Y-8067174D02*
X1294991Y-8057650D01*
X1294991Y-8057650D02*
X1323563Y-8057650D01*
X1323563Y-8057650D02*
X1342610Y-8067174D01*
X1342610Y-8067174D02*
X1352134Y-8086222D01*
X1352134Y-8086222D02*
X1352134Y-8190984D01*
X1352134Y-8086222D02*
X1361658Y-8067174D01*
X1361658Y-8067174D02*
X1380705Y-8057650D01*
X1380705Y-8057650D02*
X1409277Y-8057650D01*
X1409277Y-8057650D02*
X1428324Y-8067174D01*
X1428324Y-8067174D02*
X1437848Y-8086222D01*
X1437848Y-8086222D02*
X1437848Y-8190984D01*
X1533086Y-8190984D02*
X1533086Y-8057650D01*
X1533086Y-8076698D02*
X1542610Y-8067174D01*
X1542610Y-8067174D02*
X1561658Y-8057650D01*
X1561658Y-8057650D02*
X1590229Y-8057650D01*
X1590229Y-8057650D02*
X1609277Y-8067174D01*
X1609277Y-8067174D02*
X1618801Y-8086222D01*
X1618801Y-8086222D02*
X1618801Y-8190984D01*
X1618801Y-8086222D02*
X1628324Y-8067174D01*
X1628324Y-8067174D02*
X1647372Y-8057650D01*
X1647372Y-8057650D02*
X1675943Y-8057650D01*
X1675943Y-8057650D02*
X1694991Y-8067174D01*
X1694991Y-8067174D02*
X1704515Y-8086222D01*
X1704515Y-8086222D02*
X1704515Y-8190984D01*
X2094991Y-7981460D02*
X1923563Y-8238603D01*
X2352134Y-7990984D02*
X2371182Y-7990984D01*
X2371182Y-7990984D02*
X2390229Y-8000508D01*
X2390229Y-8000508D02*
X2399753Y-8010031D01*
X2399753Y-8010031D02*
X2409277Y-8029079D01*
X2409277Y-8029079D02*
X2418801Y-8067174D01*
X2418801Y-8067174D02*
X2418801Y-8114793D01*
X2418801Y-8114793D02*
X2409277Y-8152888D01*
X2409277Y-8152888D02*
X2399753Y-8171936D01*
X2399753Y-8171936D02*
X2390229Y-8181460D01*
X2390229Y-8181460D02*
X2371182Y-8190984D01*
X2371182Y-8190984D02*
X2352134Y-8190984D01*
X2352134Y-8190984D02*
X2333087Y-8181460D01*
X2333087Y-8181460D02*
X2323563Y-8171936D01*
X2323563Y-8171936D02*
X2314039Y-8152888D01*
X2314039Y-8152888D02*
X2304515Y-8114793D01*
X2304515Y-8114793D02*
X2304515Y-8067174D01*
X2304515Y-8067174D02*
X2314039Y-8029079D01*
X2314039Y-8029079D02*
X2323563Y-8010031D01*
X2323563Y-8010031D02*
X2333087Y-8000508D01*
X2333087Y-8000508D02*
X2352134Y-7990984D01*
X2504515Y-8171936D02*
X2514039Y-8181460D01*
X2514039Y-8181460D02*
X2504515Y-8190984D01*
X2504515Y-8190984D02*
X2494991Y-8181460D01*
X2494991Y-8181460D02*
X2504515Y-8171936D01*
X2504515Y-8171936D02*
X2504515Y-8190984D01*
X2637848Y-7990984D02*
X2656896Y-7990984D01*
X2656896Y-7990984D02*
X2675944Y-8000508D01*
X2675944Y-8000508D02*
X2685468Y-8010031D01*
X2685468Y-8010031D02*
X2694991Y-8029079D01*
X2694991Y-8029079D02*
X2704515Y-8067174D01*
X2704515Y-8067174D02*
X2704515Y-8114793D01*
X2704515Y-8114793D02*
X2694991Y-8152888D01*
X2694991Y-8152888D02*
X2685468Y-8171936D01*
X2685468Y-8171936D02*
X2675944Y-8181460D01*
X2675944Y-8181460D02*
X2656896Y-8190984D01*
X2656896Y-8190984D02*
X2637848Y-8190984D01*
X2637848Y-8190984D02*
X2618801Y-8181460D01*
X2618801Y-8181460D02*
X2609277Y-8171936D01*
X2609277Y-8171936D02*
X2599753Y-8152888D01*
X2599753Y-8152888D02*
X2590229Y-8114793D01*
X2590229Y-8114793D02*
X2590229Y-8067174D01*
X2590229Y-8067174D02*
X2599753Y-8029079D01*
X2599753Y-8029079D02*
X2609277Y-8010031D01*
X2609277Y-8010031D02*
X2618801Y-8000508D01*
X2618801Y-8000508D02*
X2637848Y-7990984D01*
X2771182Y-7990984D02*
X2894991Y-7990984D01*
X2894991Y-7990984D02*
X2828325Y-8067174D01*
X2828325Y-8067174D02*
X2856896Y-8067174D01*
X2856896Y-8067174D02*
X2875944Y-8076698D01*
X2875944Y-8076698D02*
X2885467Y-8086222D01*
X2885467Y-8086222D02*
X2894991Y-8105269D01*
X2894991Y-8105269D02*
X2894991Y-8152888D01*
X2894991Y-8152888D02*
X2885467Y-8171936D01*
X2885467Y-8171936D02*
X2875944Y-8181460D01*
X2875944Y-8181460D02*
X2856896Y-8190984D01*
X2856896Y-8190984D02*
X2799753Y-8190984D01*
X2799753Y-8190984D02*
X2780706Y-8181460D01*
X2780706Y-8181460D02*
X2771182Y-8171936D01*
X2961658Y-7990984D02*
X3094991Y-7990984D01*
X3094991Y-7990984D02*
X3009277Y-8190984D01*
X3256896Y-8057650D02*
X3256896Y-8190984D01*
X3209277Y-7981460D02*
X3161658Y-8124317D01*
X3161658Y-8124317D02*
X3285467Y-8124317D01*
X3352134Y-7990984D02*
X3352134Y-8029079D01*
X3428325Y-7990984D02*
X3428325Y-8029079D01*
X3723563Y-8267174D02*
X3714039Y-8257650D01*
X3714039Y-8257650D02*
X3694991Y-8229079D01*
X3694991Y-8229079D02*
X3685468Y-8210031D01*
X3685468Y-8210031D02*
X3675944Y-8181460D01*
X3675944Y-8181460D02*
X3666420Y-8133841D01*
X3666420Y-8133841D02*
X3666420Y-8095746D01*
X3666420Y-8095746D02*
X3675944Y-8048127D01*
X3675944Y-8048127D02*
X3685468Y-8019555D01*
X3685468Y-8019555D02*
X3694991Y-8000508D01*
X3694991Y-8000508D02*
X3714039Y-7971936D01*
X3714039Y-7971936D02*
X3723563Y-7962412D01*
X3885468Y-7990984D02*
X3847372Y-7990984D01*
X3847372Y-7990984D02*
X3828325Y-8000508D01*
X3828325Y-8000508D02*
X3818801Y-8010031D01*
X3818801Y-8010031D02*
X3799753Y-8038603D01*
X3799753Y-8038603D02*
X3790229Y-8076698D01*
X3790229Y-8076698D02*
X3790229Y-8152888D01*
X3790229Y-8152888D02*
X3799753Y-8171936D01*
X3799753Y-8171936D02*
X3809277Y-8181460D01*
X3809277Y-8181460D02*
X3828325Y-8190984D01*
X3828325Y-8190984D02*
X3866420Y-8190984D01*
X3866420Y-8190984D02*
X3885468Y-8181460D01*
X3885468Y-8181460D02*
X3894991Y-8171936D01*
X3894991Y-8171936D02*
X3904515Y-8152888D01*
X3904515Y-8152888D02*
X3904515Y-8105269D01*
X3904515Y-8105269D02*
X3894991Y-8086222D01*
X3894991Y-8086222D02*
X3885468Y-8076698D01*
X3885468Y-8076698D02*
X3866420Y-8067174D01*
X3866420Y-8067174D02*
X3828325Y-8067174D01*
X3828325Y-8067174D02*
X3809277Y-8076698D01*
X3809277Y-8076698D02*
X3799753Y-8086222D01*
X3799753Y-8086222D02*
X3790229Y-8105269D01*
X4142610Y-8190984D02*
X4142610Y-7990984D01*
X4228325Y-8190984D02*
X4228325Y-8086222D01*
X4228325Y-8086222D02*
X4218801Y-8067174D01*
X4218801Y-8067174D02*
X4199753Y-8057650D01*
X4199753Y-8057650D02*
X4171182Y-8057650D01*
X4171182Y-8057650D02*
X4152134Y-8067174D01*
X4152134Y-8067174D02*
X4142610Y-8076698D01*
X4352134Y-8190984D02*
X4333087Y-8181460D01*
X4333087Y-8181460D02*
X4323563Y-8171936D01*
X4323563Y-8171936D02*
X4314039Y-8152888D01*
X4314039Y-8152888D02*
X4314039Y-8095746D01*
X4314039Y-8095746D02*
X4323563Y-8076698D01*
X4323563Y-8076698D02*
X4333087Y-8067174D01*
X4333087Y-8067174D02*
X4352134Y-8057650D01*
X4352134Y-8057650D02*
X4380706Y-8057650D01*
X4380706Y-8057650D02*
X4399753Y-8067174D01*
X4399753Y-8067174D02*
X4409277Y-8076698D01*
X4409277Y-8076698D02*
X4418801Y-8095746D01*
X4418801Y-8095746D02*
X4418801Y-8152888D01*
X4418801Y-8152888D02*
X4409277Y-8171936D01*
X4409277Y-8171936D02*
X4399753Y-8181460D01*
X4399753Y-8181460D02*
X4380706Y-8190984D01*
X4380706Y-8190984D02*
X4352134Y-8190984D01*
X4533087Y-8190984D02*
X4514039Y-8181460D01*
X4514039Y-8181460D02*
X4504515Y-8162412D01*
X4504515Y-8162412D02*
X4504515Y-7990984D01*
X4685468Y-8181460D02*
X4666420Y-8190984D01*
X4666420Y-8190984D02*
X4628325Y-8190984D01*
X4628325Y-8190984D02*
X4609277Y-8181460D01*
X4609277Y-8181460D02*
X4599753Y-8162412D01*
X4599753Y-8162412D02*
X4599753Y-8086222D01*
X4599753Y-8086222D02*
X4609277Y-8067174D01*
X4609277Y-8067174D02*
X4628325Y-8057650D01*
X4628325Y-8057650D02*
X4666420Y-8057650D01*
X4666420Y-8057650D02*
X4685468Y-8067174D01*
X4685468Y-8067174D02*
X4694992Y-8086222D01*
X4694992Y-8086222D02*
X4694992Y-8105269D01*
X4694992Y-8105269D02*
X4599753Y-8124317D01*
X4771182Y-8181460D02*
X4790230Y-8190984D01*
X4790230Y-8190984D02*
X4828325Y-8190984D01*
X4828325Y-8190984D02*
X4847373Y-8181460D01*
X4847373Y-8181460D02*
X4856896Y-8162412D01*
X4856896Y-8162412D02*
X4856896Y-8152888D01*
X4856896Y-8152888D02*
X4847373Y-8133841D01*
X4847373Y-8133841D02*
X4828325Y-8124317D01*
X4828325Y-8124317D02*
X4799753Y-8124317D01*
X4799753Y-8124317D02*
X4780706Y-8114793D01*
X4780706Y-8114793D02*
X4771182Y-8095746D01*
X4771182Y-8095746D02*
X4771182Y-8086222D01*
X4771182Y-8086222D02*
X4780706Y-8067174D01*
X4780706Y-8067174D02*
X4799753Y-8057650D01*
X4799753Y-8057650D02*
X4828325Y-8057650D01*
X4828325Y-8057650D02*
X4847373Y-8067174D01*
X4923563Y-8267174D02*
X4933087Y-8257650D01*
X4933087Y-8257650D02*
X4952134Y-8229079D01*
X4952134Y-8229079D02*
X4961658Y-8210031D01*
X4961658Y-8210031D02*
X4971182Y-8181460D01*
X4971182Y-8181460D02*
X4980706Y-8133841D01*
X4980706Y-8133841D02*
X4980706Y-8095746D01*
X4980706Y-8095746D02*
X4971182Y-8048127D01*
X4971182Y-8048127D02*
X4961658Y-8019555D01*
X4961658Y-8019555D02*
X4952134Y-8000508D01*
X4952134Y-8000508D02*
X4933087Y-7971936D01*
X4933087Y-7971936D02*
X4923563Y-7962412D01*
D12*
X133856Y-8398856D02*
X133856Y-8328144D01*
X63144Y-8328144D01*
X63144Y-8398856D01*
X133856Y-8398856D01*
D11*
X514039Y-8454984D02*
X399753Y-8454984D01*
X456896Y-8454984D02*
X456896Y-8254984D01*
X456896Y-8254984D02*
X437848Y-8283555D01*
X437848Y-8283555D02*
X418801Y-8302603D01*
X418801Y-8302603D02*
X399753Y-8312127D01*
X599753Y-8435936D02*
X609277Y-8445460D01*
X609277Y-8445460D02*
X599753Y-8454984D01*
X599753Y-8454984D02*
X590229Y-8445460D01*
X590229Y-8445460D02*
X599753Y-8435936D01*
X599753Y-8435936D02*
X599753Y-8454984D01*
X733086Y-8254984D02*
X752134Y-8254984D01*
X752134Y-8254984D02*
X771182Y-8264508D01*
X771182Y-8264508D02*
X780705Y-8274031D01*
X780705Y-8274031D02*
X790229Y-8293079D01*
X790229Y-8293079D02*
X799753Y-8331174D01*
X799753Y-8331174D02*
X799753Y-8378793D01*
X799753Y-8378793D02*
X790229Y-8416889D01*
X790229Y-8416889D02*
X780705Y-8435936D01*
X780705Y-8435936D02*
X771182Y-8445460D01*
X771182Y-8445460D02*
X752134Y-8454984D01*
X752134Y-8454984D02*
X733086Y-8454984D01*
X733086Y-8454984D02*
X714039Y-8445460D01*
X714039Y-8445460D02*
X704515Y-8435936D01*
X704515Y-8435936D02*
X694991Y-8416889D01*
X694991Y-8416889D02*
X685467Y-8378793D01*
X685467Y-8378793D02*
X685467Y-8331174D01*
X685467Y-8331174D02*
X694991Y-8293079D01*
X694991Y-8293079D02*
X704515Y-8274031D01*
X704515Y-8274031D02*
X714039Y-8264508D01*
X714039Y-8264508D02*
X733086Y-8254984D01*
X923562Y-8254984D02*
X942610Y-8254984D01*
X942610Y-8254984D02*
X961658Y-8264508D01*
X961658Y-8264508D02*
X971182Y-8274031D01*
X971182Y-8274031D02*
X980705Y-8293079D01*
X980705Y-8293079D02*
X990229Y-8331174D01*
X990229Y-8331174D02*
X990229Y-8378793D01*
X990229Y-8378793D02*
X980705Y-8416889D01*
X980705Y-8416889D02*
X971182Y-8435936D01*
X971182Y-8435936D02*
X961658Y-8445460D01*
X961658Y-8445460D02*
X942610Y-8454984D01*
X942610Y-8454984D02*
X923562Y-8454984D01*
X923562Y-8454984D02*
X904515Y-8445460D01*
X904515Y-8445460D02*
X894991Y-8435936D01*
X894991Y-8435936D02*
X885467Y-8416889D01*
X885467Y-8416889D02*
X875943Y-8378793D01*
X875943Y-8378793D02*
X875943Y-8331174D01*
X875943Y-8331174D02*
X885467Y-8293079D01*
X885467Y-8293079D02*
X894991Y-8274031D01*
X894991Y-8274031D02*
X904515Y-8264508D01*
X904515Y-8264508D02*
X923562Y-8254984D01*
X1114039Y-8254984D02*
X1133086Y-8254984D01*
X1133086Y-8254984D02*
X1152134Y-8264508D01*
X1152134Y-8264508D02*
X1161658Y-8274031D01*
X1161658Y-8274031D02*
X1171182Y-8293079D01*
X1171182Y-8293079D02*
X1180705Y-8331174D01*
X1180705Y-8331174D02*
X1180705Y-8378793D01*
X1180705Y-8378793D02*
X1171182Y-8416889D01*
X1171182Y-8416889D02*
X1161658Y-8435936D01*
X1161658Y-8435936D02*
X1152134Y-8445460D01*
X1152134Y-8445460D02*
X1133086Y-8454984D01*
X1133086Y-8454984D02*
X1114039Y-8454984D01*
X1114039Y-8454984D02*
X1094991Y-8445460D01*
X1094991Y-8445460D02*
X1085467Y-8435936D01*
X1085467Y-8435936D02*
X1075944Y-8416889D01*
X1075944Y-8416889D02*
X1066420Y-8378793D01*
X1066420Y-8378793D02*
X1066420Y-8331174D01*
X1066420Y-8331174D02*
X1075944Y-8293079D01*
X1075944Y-8293079D02*
X1085467Y-8274031D01*
X1085467Y-8274031D02*
X1094991Y-8264508D01*
X1094991Y-8264508D02*
X1114039Y-8254984D01*
X1266420Y-8454984D02*
X1266420Y-8321650D01*
X1266420Y-8340698D02*
X1275944Y-8331174D01*
X1275944Y-8331174D02*
X1294991Y-8321650D01*
X1294991Y-8321650D02*
X1323563Y-8321650D01*
X1323563Y-8321650D02*
X1342610Y-8331174D01*
X1342610Y-8331174D02*
X1352134Y-8350222D01*
X1352134Y-8350222D02*
X1352134Y-8454984D01*
X1352134Y-8350222D02*
X1361658Y-8331174D01*
X1361658Y-8331174D02*
X1380705Y-8321650D01*
X1380705Y-8321650D02*
X1409277Y-8321650D01*
X1409277Y-8321650D02*
X1428324Y-8331174D01*
X1428324Y-8331174D02*
X1437848Y-8350222D01*
X1437848Y-8350222D02*
X1437848Y-8454984D01*
X1533086Y-8454984D02*
X1533086Y-8321650D01*
X1533086Y-8340698D02*
X1542610Y-8331174D01*
X1542610Y-8331174D02*
X1561658Y-8321650D01*
X1561658Y-8321650D02*
X1590229Y-8321650D01*
X1590229Y-8321650D02*
X1609277Y-8331174D01*
X1609277Y-8331174D02*
X1618801Y-8350222D01*
X1618801Y-8350222D02*
X1618801Y-8454984D01*
X1618801Y-8350222D02*
X1628324Y-8331174D01*
X1628324Y-8331174D02*
X1647372Y-8321650D01*
X1647372Y-8321650D02*
X1675943Y-8321650D01*
X1675943Y-8321650D02*
X1694991Y-8331174D01*
X1694991Y-8331174D02*
X1704515Y-8350222D01*
X1704515Y-8350222D02*
X1704515Y-8454984D01*
X2094991Y-8245460D02*
X1923563Y-8502603D01*
X2352134Y-8254984D02*
X2371182Y-8254984D01*
X2371182Y-8254984D02*
X2390229Y-8264508D01*
X2390229Y-8264508D02*
X2399753Y-8274031D01*
X2399753Y-8274031D02*
X2409277Y-8293079D01*
X2409277Y-8293079D02*
X2418801Y-8331174D01*
X2418801Y-8331174D02*
X2418801Y-8378793D01*
X2418801Y-8378793D02*
X2409277Y-8416889D01*
X2409277Y-8416889D02*
X2399753Y-8435936D01*
X2399753Y-8435936D02*
X2390229Y-8445460D01*
X2390229Y-8445460D02*
X2371182Y-8454984D01*
X2371182Y-8454984D02*
X2352134Y-8454984D01*
X2352134Y-8454984D02*
X2333087Y-8445460D01*
X2333087Y-8445460D02*
X2323563Y-8435936D01*
X2323563Y-8435936D02*
X2314039Y-8416889D01*
X2314039Y-8416889D02*
X2304515Y-8378793D01*
X2304515Y-8378793D02*
X2304515Y-8331174D01*
X2304515Y-8331174D02*
X2314039Y-8293079D01*
X2314039Y-8293079D02*
X2323563Y-8274031D01*
X2323563Y-8274031D02*
X2333087Y-8264508D01*
X2333087Y-8264508D02*
X2352134Y-8254984D01*
X2504515Y-8435936D02*
X2514039Y-8445460D01*
X2514039Y-8445460D02*
X2504515Y-8454984D01*
X2504515Y-8454984D02*
X2494991Y-8445460D01*
X2494991Y-8445460D02*
X2504515Y-8435936D01*
X2504515Y-8435936D02*
X2504515Y-8454984D01*
X2637848Y-8254984D02*
X2656896Y-8254984D01*
X2656896Y-8254984D02*
X2675944Y-8264508D01*
X2675944Y-8264508D02*
X2685468Y-8274031D01*
X2685468Y-8274031D02*
X2694991Y-8293079D01*
X2694991Y-8293079D02*
X2704515Y-8331174D01*
X2704515Y-8331174D02*
X2704515Y-8378793D01*
X2704515Y-8378793D02*
X2694991Y-8416889D01*
X2694991Y-8416889D02*
X2685468Y-8435936D01*
X2685468Y-8435936D02*
X2675944Y-8445460D01*
X2675944Y-8445460D02*
X2656896Y-8454984D01*
X2656896Y-8454984D02*
X2637848Y-8454984D01*
X2637848Y-8454984D02*
X2618801Y-8445460D01*
X2618801Y-8445460D02*
X2609277Y-8435936D01*
X2609277Y-8435936D02*
X2599753Y-8416889D01*
X2599753Y-8416889D02*
X2590229Y-8378793D01*
X2590229Y-8378793D02*
X2590229Y-8331174D01*
X2590229Y-8331174D02*
X2599753Y-8293079D01*
X2599753Y-8293079D02*
X2609277Y-8274031D01*
X2609277Y-8274031D02*
X2618801Y-8264508D01*
X2618801Y-8264508D02*
X2637848Y-8254984D01*
X2771182Y-8254984D02*
X2894991Y-8254984D01*
X2894991Y-8254984D02*
X2828325Y-8331174D01*
X2828325Y-8331174D02*
X2856896Y-8331174D01*
X2856896Y-8331174D02*
X2875944Y-8340698D01*
X2875944Y-8340698D02*
X2885467Y-8350222D01*
X2885467Y-8350222D02*
X2894991Y-8369269D01*
X2894991Y-8369269D02*
X2894991Y-8416889D01*
X2894991Y-8416889D02*
X2885467Y-8435936D01*
X2885467Y-8435936D02*
X2875944Y-8445460D01*
X2875944Y-8445460D02*
X2856896Y-8454984D01*
X2856896Y-8454984D02*
X2799753Y-8454984D01*
X2799753Y-8454984D02*
X2780706Y-8445460D01*
X2780706Y-8445460D02*
X2771182Y-8435936D01*
X2990229Y-8454984D02*
X3028325Y-8454984D01*
X3028325Y-8454984D02*
X3047372Y-8445460D01*
X3047372Y-8445460D02*
X3056896Y-8435936D01*
X3056896Y-8435936D02*
X3075944Y-8407365D01*
X3075944Y-8407365D02*
X3085467Y-8369269D01*
X3085467Y-8369269D02*
X3085467Y-8293079D01*
X3085467Y-8293079D02*
X3075944Y-8274031D01*
X3075944Y-8274031D02*
X3066420Y-8264508D01*
X3066420Y-8264508D02*
X3047372Y-8254984D01*
X3047372Y-8254984D02*
X3009277Y-8254984D01*
X3009277Y-8254984D02*
X2990229Y-8264508D01*
X2990229Y-8264508D02*
X2980706Y-8274031D01*
X2980706Y-8274031D02*
X2971182Y-8293079D01*
X2971182Y-8293079D02*
X2971182Y-8340698D01*
X2971182Y-8340698D02*
X2980706Y-8359746D01*
X2980706Y-8359746D02*
X2990229Y-8369269D01*
X2990229Y-8369269D02*
X3009277Y-8378793D01*
X3009277Y-8378793D02*
X3047372Y-8378793D01*
X3047372Y-8378793D02*
X3066420Y-8369269D01*
X3066420Y-8369269D02*
X3075944Y-8359746D01*
X3075944Y-8359746D02*
X3085467Y-8340698D01*
X3256896Y-8321650D02*
X3256896Y-8454984D01*
X3209277Y-8245460D02*
X3161658Y-8388317D01*
X3161658Y-8388317D02*
X3285467Y-8388317D01*
X3352134Y-8254984D02*
X3352134Y-8293079D01*
X3428325Y-8254984D02*
X3428325Y-8293079D01*
X3723563Y-8531174D02*
X3714039Y-8521650D01*
X3714039Y-8521650D02*
X3694991Y-8493079D01*
X3694991Y-8493079D02*
X3685468Y-8474031D01*
X3685468Y-8474031D02*
X3675944Y-8445460D01*
X3675944Y-8445460D02*
X3666420Y-8397841D01*
X3666420Y-8397841D02*
X3666420Y-8359746D01*
X3666420Y-8359746D02*
X3675944Y-8312127D01*
X3675944Y-8312127D02*
X3685468Y-8283555D01*
X3685468Y-8283555D02*
X3694991Y-8264508D01*
X3694991Y-8264508D02*
X3714039Y-8235936D01*
X3714039Y-8235936D02*
X3723563Y-8226412D01*
X3885468Y-8321650D02*
X3885468Y-8454984D01*
X3837848Y-8245460D02*
X3790229Y-8388317D01*
X3790229Y-8388317D02*
X3914039Y-8388317D01*
X3971182Y-8254984D02*
X4104515Y-8254984D01*
X4104515Y-8254984D02*
X4018801Y-8454984D01*
X4333087Y-8454984D02*
X4333087Y-8254984D01*
X4418801Y-8454984D02*
X4418801Y-8350222D01*
X4418801Y-8350222D02*
X4409277Y-8331174D01*
X4409277Y-8331174D02*
X4390230Y-8321650D01*
X4390230Y-8321650D02*
X4361658Y-8321650D01*
X4361658Y-8321650D02*
X4342611Y-8331174D01*
X4342611Y-8331174D02*
X4333087Y-8340698D01*
X4542611Y-8454984D02*
X4523563Y-8445460D01*
X4523563Y-8445460D02*
X4514039Y-8435936D01*
X4514039Y-8435936D02*
X4504515Y-8416889D01*
X4504515Y-8416889D02*
X4504515Y-8359746D01*
X4504515Y-8359746D02*
X4514039Y-8340698D01*
X4514039Y-8340698D02*
X4523563Y-8331174D01*
X4523563Y-8331174D02*
X4542611Y-8321650D01*
X4542611Y-8321650D02*
X4571182Y-8321650D01*
X4571182Y-8321650D02*
X4590230Y-8331174D01*
X4590230Y-8331174D02*
X4599753Y-8340698D01*
X4599753Y-8340698D02*
X4609277Y-8359746D01*
X4609277Y-8359746D02*
X4609277Y-8416889D01*
X4609277Y-8416889D02*
X4599753Y-8435936D01*
X4599753Y-8435936D02*
X4590230Y-8445460D01*
X4590230Y-8445460D02*
X4571182Y-8454984D01*
X4571182Y-8454984D02*
X4542611Y-8454984D01*
X4723563Y-8454984D02*
X4704515Y-8445460D01*
X4704515Y-8445460D02*
X4694992Y-8426412D01*
X4694992Y-8426412D02*
X4694992Y-8254984D01*
X4875944Y-8445460D02*
X4856896Y-8454984D01*
X4856896Y-8454984D02*
X4818801Y-8454984D01*
X4818801Y-8454984D02*
X4799753Y-8445460D01*
X4799753Y-8445460D02*
X4790230Y-8426412D01*
X4790230Y-8426412D02*
X4790230Y-8350222D01*
X4790230Y-8350222D02*
X4799753Y-8331174D01*
X4799753Y-8331174D02*
X4818801Y-8321650D01*
X4818801Y-8321650D02*
X4856896Y-8321650D01*
X4856896Y-8321650D02*
X4875944Y-8331174D01*
X4875944Y-8331174D02*
X4885468Y-8350222D01*
X4885468Y-8350222D02*
X4885468Y-8369269D01*
X4885468Y-8369269D02*
X4790230Y-8388317D01*
X4961658Y-8445460D02*
X4980706Y-8454984D01*
X4980706Y-8454984D02*
X5018801Y-8454984D01*
X5018801Y-8454984D02*
X5037849Y-8445460D01*
X5037849Y-8445460D02*
X5047373Y-8426412D01*
X5047373Y-8426412D02*
X5047373Y-8416889D01*
X5047373Y-8416889D02*
X5037849Y-8397841D01*
X5037849Y-8397841D02*
X5018801Y-8388317D01*
X5018801Y-8388317D02*
X4990230Y-8388317D01*
X4990230Y-8388317D02*
X4971182Y-8378793D01*
X4971182Y-8378793D02*
X4961658Y-8359746D01*
X4961658Y-8359746D02*
X4961658Y-8350222D01*
X4961658Y-8350222D02*
X4971182Y-8331174D01*
X4971182Y-8331174D02*
X4990230Y-8321650D01*
X4990230Y-8321650D02*
X5018801Y-8321650D01*
X5018801Y-8321650D02*
X5037849Y-8331174D01*
X5114039Y-8531174D02*
X5123563Y-8521650D01*
X5123563Y-8521650D02*
X5142611Y-8493079D01*
X5142611Y-8493079D02*
X5152134Y-8474031D01*
X5152134Y-8474031D02*
X5161658Y-8445460D01*
X5161658Y-8445460D02*
X5171182Y-8397841D01*
X5171182Y-8397841D02*
X5171182Y-8359746D01*
X5171182Y-8359746D02*
X5161658Y-8312127D01*
X5161658Y-8312127D02*
X5152134Y-8283555D01*
X5152134Y-8283555D02*
X5142611Y-8264508D01*
X5142611Y-8264508D02*
X5123563Y-8235936D01*
X5123563Y-8235936D02*
X5114039Y-8226412D01*
X48500Y-8727500D02*
X148500Y-8627500D01*
X48500Y-8527500D01*
X-51500Y-8627500D01*
X48500Y-8727500D01*
X399753Y-8538031D02*
X409277Y-8528508D01*
X409277Y-8528508D02*
X428324Y-8518984D01*
X428324Y-8518984D02*
X475943Y-8518984D01*
X475943Y-8518984D02*
X494991Y-8528508D01*
X494991Y-8528508D02*
X504515Y-8538031D01*
X504515Y-8538031D02*
X514039Y-8557079D01*
X514039Y-8557079D02*
X514039Y-8576127D01*
X514039Y-8576127D02*
X504515Y-8604698D01*
X504515Y-8604698D02*
X390229Y-8718984D01*
X390229Y-8718984D02*
X514039Y-8718984D01*
X599753Y-8699936D02*
X609277Y-8709460D01*
X609277Y-8709460D02*
X599753Y-8718984D01*
X599753Y-8718984D02*
X590229Y-8709460D01*
X590229Y-8709460D02*
X599753Y-8699936D01*
X599753Y-8699936D02*
X599753Y-8718984D01*
X799753Y-8718984D02*
X685467Y-8718984D01*
X742610Y-8718984D02*
X742610Y-8518984D01*
X742610Y-8518984D02*
X723562Y-8547555D01*
X723562Y-8547555D02*
X704515Y-8566603D01*
X704515Y-8566603D02*
X685467Y-8576127D01*
X923562Y-8518984D02*
X942610Y-8518984D01*
X942610Y-8518984D02*
X961658Y-8528508D01*
X961658Y-8528508D02*
X971182Y-8538031D01*
X971182Y-8538031D02*
X980705Y-8557079D01*
X980705Y-8557079D02*
X990229Y-8595174D01*
X990229Y-8595174D02*
X990229Y-8642793D01*
X990229Y-8642793D02*
X980705Y-8680889D01*
X980705Y-8680889D02*
X971182Y-8699936D01*
X971182Y-8699936D02*
X961658Y-8709460D01*
X961658Y-8709460D02*
X942610Y-8718984D01*
X942610Y-8718984D02*
X923562Y-8718984D01*
X923562Y-8718984D02*
X904515Y-8709460D01*
X904515Y-8709460D02*
X894991Y-8699936D01*
X894991Y-8699936D02*
X885467Y-8680889D01*
X885467Y-8680889D02*
X875943Y-8642793D01*
X875943Y-8642793D02*
X875943Y-8595174D01*
X875943Y-8595174D02*
X885467Y-8557079D01*
X885467Y-8557079D02*
X894991Y-8538031D01*
X894991Y-8538031D02*
X904515Y-8528508D01*
X904515Y-8528508D02*
X923562Y-8518984D01*
X1114039Y-8518984D02*
X1133086Y-8518984D01*
X1133086Y-8518984D02*
X1152134Y-8528508D01*
X1152134Y-8528508D02*
X1161658Y-8538031D01*
X1161658Y-8538031D02*
X1171182Y-8557079D01*
X1171182Y-8557079D02*
X1180705Y-8595174D01*
X1180705Y-8595174D02*
X1180705Y-8642793D01*
X1180705Y-8642793D02*
X1171182Y-8680889D01*
X1171182Y-8680889D02*
X1161658Y-8699936D01*
X1161658Y-8699936D02*
X1152134Y-8709460D01*
X1152134Y-8709460D02*
X1133086Y-8718984D01*
X1133086Y-8718984D02*
X1114039Y-8718984D01*
X1114039Y-8718984D02*
X1094991Y-8709460D01*
X1094991Y-8709460D02*
X1085467Y-8699936D01*
X1085467Y-8699936D02*
X1075944Y-8680889D01*
X1075944Y-8680889D02*
X1066420Y-8642793D01*
X1066420Y-8642793D02*
X1066420Y-8595174D01*
X1066420Y-8595174D02*
X1075944Y-8557079D01*
X1075944Y-8557079D02*
X1085467Y-8538031D01*
X1085467Y-8538031D02*
X1094991Y-8528508D01*
X1094991Y-8528508D02*
X1114039Y-8518984D01*
X1266420Y-8718984D02*
X1266420Y-8585650D01*
X1266420Y-8604698D02*
X1275944Y-8595174D01*
X1275944Y-8595174D02*
X1294991Y-8585650D01*
X1294991Y-8585650D02*
X1323563Y-8585650D01*
X1323563Y-8585650D02*
X1342610Y-8595174D01*
X1342610Y-8595174D02*
X1352134Y-8614222D01*
X1352134Y-8614222D02*
X1352134Y-8718984D01*
X1352134Y-8614222D02*
X1361658Y-8595174D01*
X1361658Y-8595174D02*
X1380705Y-8585650D01*
X1380705Y-8585650D02*
X1409277Y-8585650D01*
X1409277Y-8585650D02*
X1428324Y-8595174D01*
X1428324Y-8595174D02*
X1437848Y-8614222D01*
X1437848Y-8614222D02*
X1437848Y-8718984D01*
X1533086Y-8718984D02*
X1533086Y-8585650D01*
X1533086Y-8604698D02*
X1542610Y-8595174D01*
X1542610Y-8595174D02*
X1561658Y-8585650D01*
X1561658Y-8585650D02*
X1590229Y-8585650D01*
X1590229Y-8585650D02*
X1609277Y-8595174D01*
X1609277Y-8595174D02*
X1618801Y-8614222D01*
X1618801Y-8614222D02*
X1618801Y-8718984D01*
X1618801Y-8614222D02*
X1628324Y-8595174D01*
X1628324Y-8595174D02*
X1647372Y-8585650D01*
X1647372Y-8585650D02*
X1675943Y-8585650D01*
X1675943Y-8585650D02*
X1694991Y-8595174D01*
X1694991Y-8595174D02*
X1704515Y-8614222D01*
X1704515Y-8614222D02*
X1704515Y-8718984D01*
X2094991Y-8509460D02*
X1923563Y-8766603D01*
X2352134Y-8518984D02*
X2371182Y-8518984D01*
X2371182Y-8518984D02*
X2390229Y-8528508D01*
X2390229Y-8528508D02*
X2399753Y-8538031D01*
X2399753Y-8538031D02*
X2409277Y-8557079D01*
X2409277Y-8557079D02*
X2418801Y-8595174D01*
X2418801Y-8595174D02*
X2418801Y-8642793D01*
X2418801Y-8642793D02*
X2409277Y-8680889D01*
X2409277Y-8680889D02*
X2399753Y-8699936D01*
X2399753Y-8699936D02*
X2390229Y-8709460D01*
X2390229Y-8709460D02*
X2371182Y-8718984D01*
X2371182Y-8718984D02*
X2352134Y-8718984D01*
X2352134Y-8718984D02*
X2333087Y-8709460D01*
X2333087Y-8709460D02*
X2323563Y-8699936D01*
X2323563Y-8699936D02*
X2314039Y-8680889D01*
X2314039Y-8680889D02*
X2304515Y-8642793D01*
X2304515Y-8642793D02*
X2304515Y-8595174D01*
X2304515Y-8595174D02*
X2314039Y-8557079D01*
X2314039Y-8557079D02*
X2323563Y-8538031D01*
X2323563Y-8538031D02*
X2333087Y-8528508D01*
X2333087Y-8528508D02*
X2352134Y-8518984D01*
X2504515Y-8699936D02*
X2514039Y-8709460D01*
X2514039Y-8709460D02*
X2504515Y-8718984D01*
X2504515Y-8718984D02*
X2494991Y-8709460D01*
X2494991Y-8709460D02*
X2504515Y-8699936D01*
X2504515Y-8699936D02*
X2504515Y-8718984D01*
X2637848Y-8518984D02*
X2656896Y-8518984D01*
X2656896Y-8518984D02*
X2675944Y-8528508D01*
X2675944Y-8528508D02*
X2685468Y-8538031D01*
X2685468Y-8538031D02*
X2694991Y-8557079D01*
X2694991Y-8557079D02*
X2704515Y-8595174D01*
X2704515Y-8595174D02*
X2704515Y-8642793D01*
X2704515Y-8642793D02*
X2694991Y-8680889D01*
X2694991Y-8680889D02*
X2685468Y-8699936D01*
X2685468Y-8699936D02*
X2675944Y-8709460D01*
X2675944Y-8709460D02*
X2656896Y-8718984D01*
X2656896Y-8718984D02*
X2637848Y-8718984D01*
X2637848Y-8718984D02*
X2618801Y-8709460D01*
X2618801Y-8709460D02*
X2609277Y-8699936D01*
X2609277Y-8699936D02*
X2599753Y-8680889D01*
X2599753Y-8680889D02*
X2590229Y-8642793D01*
X2590229Y-8642793D02*
X2590229Y-8595174D01*
X2590229Y-8595174D02*
X2599753Y-8557079D01*
X2599753Y-8557079D02*
X2609277Y-8538031D01*
X2609277Y-8538031D02*
X2618801Y-8528508D01*
X2618801Y-8528508D02*
X2637848Y-8518984D01*
X2818801Y-8604698D02*
X2799753Y-8595174D01*
X2799753Y-8595174D02*
X2790229Y-8585650D01*
X2790229Y-8585650D02*
X2780706Y-8566603D01*
X2780706Y-8566603D02*
X2780706Y-8557079D01*
X2780706Y-8557079D02*
X2790229Y-8538031D01*
X2790229Y-8538031D02*
X2799753Y-8528508D01*
X2799753Y-8528508D02*
X2818801Y-8518984D01*
X2818801Y-8518984D02*
X2856896Y-8518984D01*
X2856896Y-8518984D02*
X2875944Y-8528508D01*
X2875944Y-8528508D02*
X2885467Y-8538031D01*
X2885467Y-8538031D02*
X2894991Y-8557079D01*
X2894991Y-8557079D02*
X2894991Y-8566603D01*
X2894991Y-8566603D02*
X2885467Y-8585650D01*
X2885467Y-8585650D02*
X2875944Y-8595174D01*
X2875944Y-8595174D02*
X2856896Y-8604698D01*
X2856896Y-8604698D02*
X2818801Y-8604698D01*
X2818801Y-8604698D02*
X2799753Y-8614222D01*
X2799753Y-8614222D02*
X2790229Y-8623746D01*
X2790229Y-8623746D02*
X2780706Y-8642793D01*
X2780706Y-8642793D02*
X2780706Y-8680889D01*
X2780706Y-8680889D02*
X2790229Y-8699936D01*
X2790229Y-8699936D02*
X2799753Y-8709460D01*
X2799753Y-8709460D02*
X2818801Y-8718984D01*
X2818801Y-8718984D02*
X2856896Y-8718984D01*
X2856896Y-8718984D02*
X2875944Y-8709460D01*
X2875944Y-8709460D02*
X2885467Y-8699936D01*
X2885467Y-8699936D02*
X2894991Y-8680889D01*
X2894991Y-8680889D02*
X2894991Y-8642793D01*
X2894991Y-8642793D02*
X2885467Y-8623746D01*
X2885467Y-8623746D02*
X2875944Y-8614222D01*
X2875944Y-8614222D02*
X2856896Y-8604698D01*
X2971182Y-8538031D02*
X2980706Y-8528508D01*
X2980706Y-8528508D02*
X2999753Y-8518984D01*
X2999753Y-8518984D02*
X3047372Y-8518984D01*
X3047372Y-8518984D02*
X3066420Y-8528508D01*
X3066420Y-8528508D02*
X3075944Y-8538031D01*
X3075944Y-8538031D02*
X3085467Y-8557079D01*
X3085467Y-8557079D02*
X3085467Y-8576127D01*
X3085467Y-8576127D02*
X3075944Y-8604698D01*
X3075944Y-8604698D02*
X2961658Y-8718984D01*
X2961658Y-8718984D02*
X3085467Y-8718984D01*
X3152134Y-8518984D02*
X3285467Y-8518984D01*
X3285467Y-8518984D02*
X3199753Y-8718984D01*
X3352134Y-8518984D02*
X3352134Y-8557079D01*
X3428325Y-8518984D02*
X3428325Y-8557079D01*
X3723563Y-8795174D02*
X3714039Y-8785650D01*
X3714039Y-8785650D02*
X3694991Y-8757079D01*
X3694991Y-8757079D02*
X3685468Y-8738031D01*
X3685468Y-8738031D02*
X3675944Y-8709460D01*
X3675944Y-8709460D02*
X3666420Y-8661841D01*
X3666420Y-8661841D02*
X3666420Y-8623746D01*
X3666420Y-8623746D02*
X3675944Y-8576127D01*
X3675944Y-8576127D02*
X3685468Y-8547555D01*
X3685468Y-8547555D02*
X3694991Y-8528508D01*
X3694991Y-8528508D02*
X3714039Y-8499936D01*
X3714039Y-8499936D02*
X3723563Y-8490412D01*
X3885468Y-8585650D02*
X3885468Y-8718984D01*
X3837848Y-8509460D02*
X3790229Y-8652317D01*
X3790229Y-8652317D02*
X3914039Y-8652317D01*
X4142610Y-8718984D02*
X4142610Y-8518984D01*
X4228325Y-8718984D02*
X4228325Y-8614222D01*
X4228325Y-8614222D02*
X4218801Y-8595174D01*
X4218801Y-8595174D02*
X4199753Y-8585650D01*
X4199753Y-8585650D02*
X4171182Y-8585650D01*
X4171182Y-8585650D02*
X4152134Y-8595174D01*
X4152134Y-8595174D02*
X4142610Y-8604698D01*
X4352134Y-8718984D02*
X4333087Y-8709460D01*
X4333087Y-8709460D02*
X4323563Y-8699936D01*
X4323563Y-8699936D02*
X4314039Y-8680889D01*
X4314039Y-8680889D02*
X4314039Y-8623746D01*
X4314039Y-8623746D02*
X4323563Y-8604698D01*
X4323563Y-8604698D02*
X4333087Y-8595174D01*
X4333087Y-8595174D02*
X4352134Y-8585650D01*
X4352134Y-8585650D02*
X4380706Y-8585650D01*
X4380706Y-8585650D02*
X4399753Y-8595174D01*
X4399753Y-8595174D02*
X4409277Y-8604698D01*
X4409277Y-8604698D02*
X4418801Y-8623746D01*
X4418801Y-8623746D02*
X4418801Y-8680889D01*
X4418801Y-8680889D02*
X4409277Y-8699936D01*
X4409277Y-8699936D02*
X4399753Y-8709460D01*
X4399753Y-8709460D02*
X4380706Y-8718984D01*
X4380706Y-8718984D02*
X4352134Y-8718984D01*
X4533087Y-8718984D02*
X4514039Y-8709460D01*
X4514039Y-8709460D02*
X4504515Y-8690412D01*
X4504515Y-8690412D02*
X4504515Y-8518984D01*
X4685468Y-8709460D02*
X4666420Y-8718984D01*
X4666420Y-8718984D02*
X4628325Y-8718984D01*
X4628325Y-8718984D02*
X4609277Y-8709460D01*
X4609277Y-8709460D02*
X4599753Y-8690412D01*
X4599753Y-8690412D02*
X4599753Y-8614222D01*
X4599753Y-8614222D02*
X4609277Y-8595174D01*
X4609277Y-8595174D02*
X4628325Y-8585650D01*
X4628325Y-8585650D02*
X4666420Y-8585650D01*
X4666420Y-8585650D02*
X4685468Y-8595174D01*
X4685468Y-8595174D02*
X4694992Y-8614222D01*
X4694992Y-8614222D02*
X4694992Y-8633270D01*
X4694992Y-8633270D02*
X4599753Y-8652317D01*
X4771182Y-8709460D02*
X4790230Y-8718984D01*
X4790230Y-8718984D02*
X4828325Y-8718984D01*
X4828325Y-8718984D02*
X4847373Y-8709460D01*
X4847373Y-8709460D02*
X4856896Y-8690412D01*
X4856896Y-8690412D02*
X4856896Y-8680889D01*
X4856896Y-8680889D02*
X4847373Y-8661841D01*
X4847373Y-8661841D02*
X4828325Y-8652317D01*
X4828325Y-8652317D02*
X4799753Y-8652317D01*
X4799753Y-8652317D02*
X4780706Y-8642793D01*
X4780706Y-8642793D02*
X4771182Y-8623746D01*
X4771182Y-8623746D02*
X4771182Y-8614222D01*
X4771182Y-8614222D02*
X4780706Y-8595174D01*
X4780706Y-8595174D02*
X4799753Y-8585650D01*
X4799753Y-8585650D02*
X4828325Y-8585650D01*
X4828325Y-8585650D02*
X4847373Y-8595174D01*
X4923563Y-8795174D02*
X4933087Y-8785650D01*
X4933087Y-8785650D02*
X4952134Y-8757079D01*
X4952134Y-8757079D02*
X4961658Y-8738031D01*
X4961658Y-8738031D02*
X4971182Y-8709460D01*
X4971182Y-8709460D02*
X4980706Y-8661841D01*
X4980706Y-8661841D02*
X4980706Y-8623746D01*
X4980706Y-8623746D02*
X4971182Y-8576127D01*
X4971182Y-8576127D02*
X4961658Y-8547555D01*
X4961658Y-8547555D02*
X4952134Y-8528508D01*
X4952134Y-8528508D02*
X4933087Y-8499936D01*
X4933087Y-8499936D02*
X4923563Y-8490412D01*
M02*
