%TF.GenerationSoftware,KiCad,Pcbnew,8.0.7*%
%TF.CreationDate,2025-02-05T23:04:40+01:00*%
%TF.ProjectId,YADCMCB,59414443-4d43-4422-9e6b-696361645f70,rev?*%
%TF.SameCoordinates,Original*%
%TF.FileFunction,Legend,Top*%
%TF.FilePolarity,Positive*%
%FSLAX46Y46*%
G04 Gerber Fmt 4.6, Leading zero omitted, Abs format (unit mm)*
G04 Created by KiCad (PCBNEW 8.0.7) date 2025-02-05 23:04:40*
%MOMM*%
%LPD*%
G01*
G04 APERTURE LIST*
G04 Aperture macros list*
%AMRoundRect*
0 Rectangle with rounded corners*
0 $1 Rounding radius*
0 $2 $3 $4 $5 $6 $7 $8 $9 X,Y pos of 4 corners*
0 Add a 4 corners polygon primitive as box body*
4,1,4,$2,$3,$4,$5,$6,$7,$8,$9,$2,$3,0*
0 Add four circle primitives for the rounded corners*
1,1,$1+$1,$2,$3*
1,1,$1+$1,$4,$5*
1,1,$1+$1,$6,$7*
1,1,$1+$1,$8,$9*
0 Add four rect primitives between the rounded corners*
20,1,$1+$1,$2,$3,$4,$5,0*
20,1,$1+$1,$4,$5,$6,$7,0*
20,1,$1+$1,$6,$7,$8,$9,0*
20,1,$1+$1,$8,$9,$2,$3,0*%
G04 Aperture macros list end*
%ADD10C,0.300000*%
%ADD11C,0.150000*%
%ADD12C,0.100000*%
%ADD13C,0.120000*%
%ADD14C,0.200000*%
%ADD15R,1.500000X1.000000*%
%ADD16R,5.000000X2.000000*%
%ADD17O,1.000000X1.800000*%
%ADD18O,1.000000X2.100000*%
%ADD19RoundRect,0.250000X-0.600000X-0.750000X0.600000X-0.750000X0.600000X0.750000X-0.600000X0.750000X0*%
%ADD20O,1.700000X2.000000*%
%ADD21RoundRect,0.250000X-0.600000X-0.725000X0.600000X-0.725000X0.600000X0.725000X-0.600000X0.725000X0*%
%ADD22O,1.700000X1.950000*%
%ADD23R,1.700000X1.700000*%
%ADD24O,1.700000X1.700000*%
%ADD25C,1.700000*%
%ADD26R,2.000000X2.000000*%
%ADD27O,2.000000X1.600000*%
G04 APERTURE END LIST*
D10*
X23538328Y-30995714D02*
X22038328Y-30995714D01*
X22038328Y-30995714D02*
X22038328Y-30424285D01*
X22038328Y-30424285D02*
X22109757Y-30281428D01*
X22109757Y-30281428D02*
X22181185Y-30209999D01*
X22181185Y-30209999D02*
X22324042Y-30138571D01*
X22324042Y-30138571D02*
X22538328Y-30138571D01*
X22538328Y-30138571D02*
X22681185Y-30209999D01*
X22681185Y-30209999D02*
X22752614Y-30281428D01*
X22752614Y-30281428D02*
X22824042Y-30424285D01*
X22824042Y-30424285D02*
X22824042Y-30995714D01*
X22038328Y-29209999D02*
X22038328Y-28924285D01*
X22038328Y-28924285D02*
X22109757Y-28781428D01*
X22109757Y-28781428D02*
X22252614Y-28638571D01*
X22252614Y-28638571D02*
X22538328Y-28567142D01*
X22538328Y-28567142D02*
X23038328Y-28567142D01*
X23038328Y-28567142D02*
X23324042Y-28638571D01*
X23324042Y-28638571D02*
X23466900Y-28781428D01*
X23466900Y-28781428D02*
X23538328Y-28924285D01*
X23538328Y-28924285D02*
X23538328Y-29209999D01*
X23538328Y-29209999D02*
X23466900Y-29352857D01*
X23466900Y-29352857D02*
X23324042Y-29495714D01*
X23324042Y-29495714D02*
X23038328Y-29567142D01*
X23038328Y-29567142D02*
X22538328Y-29567142D01*
X22538328Y-29567142D02*
X22252614Y-29495714D01*
X22252614Y-29495714D02*
X22109757Y-29352857D01*
X22109757Y-29352857D02*
X22038328Y-29209999D01*
X23538328Y-27209999D02*
X23538328Y-27924285D01*
X23538328Y-27924285D02*
X22038328Y-27924285D01*
X12233412Y-52902856D02*
X10733412Y-52902856D01*
X10733412Y-52902856D02*
X10733412Y-52545713D01*
X10733412Y-52545713D02*
X10804841Y-52331427D01*
X10804841Y-52331427D02*
X10947698Y-52188570D01*
X10947698Y-52188570D02*
X11090555Y-52117141D01*
X11090555Y-52117141D02*
X11376269Y-52045713D01*
X11376269Y-52045713D02*
X11590555Y-52045713D01*
X11590555Y-52045713D02*
X11876269Y-52117141D01*
X11876269Y-52117141D02*
X12019126Y-52188570D01*
X12019126Y-52188570D02*
X12161984Y-52331427D01*
X12161984Y-52331427D02*
X12233412Y-52545713D01*
X12233412Y-52545713D02*
X12233412Y-52902856D01*
X12233412Y-50545713D02*
X11519126Y-51045713D01*
X12233412Y-51402856D02*
X10733412Y-51402856D01*
X10733412Y-51402856D02*
X10733412Y-50831427D01*
X10733412Y-50831427D02*
X10804841Y-50688570D01*
X10804841Y-50688570D02*
X10876269Y-50617141D01*
X10876269Y-50617141D02*
X11019126Y-50545713D01*
X11019126Y-50545713D02*
X11233412Y-50545713D01*
X11233412Y-50545713D02*
X11376269Y-50617141D01*
X11376269Y-50617141D02*
X11447698Y-50688570D01*
X11447698Y-50688570D02*
X11519126Y-50831427D01*
X11519126Y-50831427D02*
X11519126Y-51402856D01*
X10733412Y-50117141D02*
X12233412Y-49617141D01*
X12233412Y-49617141D02*
X10733412Y-49117141D01*
X11376269Y-48402856D02*
X11304841Y-48545713D01*
X11304841Y-48545713D02*
X11233412Y-48617142D01*
X11233412Y-48617142D02*
X11090555Y-48688570D01*
X11090555Y-48688570D02*
X11019126Y-48688570D01*
X11019126Y-48688570D02*
X10876269Y-48617142D01*
X10876269Y-48617142D02*
X10804841Y-48545713D01*
X10804841Y-48545713D02*
X10733412Y-48402856D01*
X10733412Y-48402856D02*
X10733412Y-48117142D01*
X10733412Y-48117142D02*
X10804841Y-47974285D01*
X10804841Y-47974285D02*
X10876269Y-47902856D01*
X10876269Y-47902856D02*
X11019126Y-47831427D01*
X11019126Y-47831427D02*
X11090555Y-47831427D01*
X11090555Y-47831427D02*
X11233412Y-47902856D01*
X11233412Y-47902856D02*
X11304841Y-47974285D01*
X11304841Y-47974285D02*
X11376269Y-48117142D01*
X11376269Y-48117142D02*
X11376269Y-48402856D01*
X11376269Y-48402856D02*
X11447698Y-48545713D01*
X11447698Y-48545713D02*
X11519126Y-48617142D01*
X11519126Y-48617142D02*
X11661984Y-48688570D01*
X11661984Y-48688570D02*
X11947698Y-48688570D01*
X11947698Y-48688570D02*
X12090555Y-48617142D01*
X12090555Y-48617142D02*
X12161984Y-48545713D01*
X12161984Y-48545713D02*
X12233412Y-48402856D01*
X12233412Y-48402856D02*
X12233412Y-48117142D01*
X12233412Y-48117142D02*
X12161984Y-47974285D01*
X12161984Y-47974285D02*
X12090555Y-47902856D01*
X12090555Y-47902856D02*
X11947698Y-47831427D01*
X11947698Y-47831427D02*
X11661984Y-47831427D01*
X11661984Y-47831427D02*
X11519126Y-47902856D01*
X11519126Y-47902856D02*
X11447698Y-47974285D01*
X11447698Y-47974285D02*
X11376269Y-48117142D01*
X11376269Y-46974285D02*
X11304841Y-47117142D01*
X11304841Y-47117142D02*
X11233412Y-47188571D01*
X11233412Y-47188571D02*
X11090555Y-47259999D01*
X11090555Y-47259999D02*
X11019126Y-47259999D01*
X11019126Y-47259999D02*
X10876269Y-47188571D01*
X10876269Y-47188571D02*
X10804841Y-47117142D01*
X10804841Y-47117142D02*
X10733412Y-46974285D01*
X10733412Y-46974285D02*
X10733412Y-46688571D01*
X10733412Y-46688571D02*
X10804841Y-46545714D01*
X10804841Y-46545714D02*
X10876269Y-46474285D01*
X10876269Y-46474285D02*
X11019126Y-46402856D01*
X11019126Y-46402856D02*
X11090555Y-46402856D01*
X11090555Y-46402856D02*
X11233412Y-46474285D01*
X11233412Y-46474285D02*
X11304841Y-46545714D01*
X11304841Y-46545714D02*
X11376269Y-46688571D01*
X11376269Y-46688571D02*
X11376269Y-46974285D01*
X11376269Y-46974285D02*
X11447698Y-47117142D01*
X11447698Y-47117142D02*
X11519126Y-47188571D01*
X11519126Y-47188571D02*
X11661984Y-47259999D01*
X11661984Y-47259999D02*
X11947698Y-47259999D01*
X11947698Y-47259999D02*
X12090555Y-47188571D01*
X12090555Y-47188571D02*
X12161984Y-47117142D01*
X12161984Y-47117142D02*
X12233412Y-46974285D01*
X12233412Y-46974285D02*
X12233412Y-46688571D01*
X12233412Y-46688571D02*
X12161984Y-46545714D01*
X12161984Y-46545714D02*
X12090555Y-46474285D01*
X12090555Y-46474285D02*
X11947698Y-46402856D01*
X11947698Y-46402856D02*
X11661984Y-46402856D01*
X11661984Y-46402856D02*
X11519126Y-46474285D01*
X11519126Y-46474285D02*
X11447698Y-46545714D01*
X11447698Y-46545714D02*
X11376269Y-46688571D01*
X10733412Y-45902857D02*
X10733412Y-44974285D01*
X10733412Y-44974285D02*
X11304841Y-45474285D01*
X11304841Y-45474285D02*
X11304841Y-45260000D01*
X11304841Y-45260000D02*
X11376269Y-45117143D01*
X11376269Y-45117143D02*
X11447698Y-45045714D01*
X11447698Y-45045714D02*
X11590555Y-44974285D01*
X11590555Y-44974285D02*
X11947698Y-44974285D01*
X11947698Y-44974285D02*
X12090555Y-45045714D01*
X12090555Y-45045714D02*
X12161984Y-45117143D01*
X12161984Y-45117143D02*
X12233412Y-45260000D01*
X12233412Y-45260000D02*
X12233412Y-45688571D01*
X12233412Y-45688571D02*
X12161984Y-45831428D01*
X12161984Y-45831428D02*
X12090555Y-45902857D01*
X10733412Y-44474286D02*
X10733412Y-43545714D01*
X10733412Y-43545714D02*
X11304841Y-44045714D01*
X11304841Y-44045714D02*
X11304841Y-43831429D01*
X11304841Y-43831429D02*
X11376269Y-43688572D01*
X11376269Y-43688572D02*
X11447698Y-43617143D01*
X11447698Y-43617143D02*
X11590555Y-43545714D01*
X11590555Y-43545714D02*
X11947698Y-43545714D01*
X11947698Y-43545714D02*
X12090555Y-43617143D01*
X12090555Y-43617143D02*
X12161984Y-43688572D01*
X12161984Y-43688572D02*
X12233412Y-43831429D01*
X12233412Y-43831429D02*
X12233412Y-44260000D01*
X12233412Y-44260000D02*
X12161984Y-44402857D01*
X12161984Y-44402857D02*
X12090555Y-44474286D01*
X13076900Y-47617142D02*
X15005471Y-48902856D01*
X17063244Y-52331427D02*
X15563244Y-52331427D01*
X15563244Y-52331427D02*
X16634673Y-51831427D01*
X16634673Y-51831427D02*
X15563244Y-51331427D01*
X15563244Y-51331427D02*
X17063244Y-51331427D01*
X15563244Y-50759998D02*
X17063244Y-49759998D01*
X15563244Y-49759998D02*
X17063244Y-50759998D01*
X17063244Y-48402855D02*
X17063244Y-49259998D01*
X17063244Y-48831427D02*
X15563244Y-48831427D01*
X15563244Y-48831427D02*
X15777530Y-48974284D01*
X15777530Y-48974284D02*
X15920387Y-49117141D01*
X15920387Y-49117141D02*
X15991816Y-49259998D01*
X15563244Y-47045713D02*
X15563244Y-47759999D01*
X15563244Y-47759999D02*
X16277530Y-47831427D01*
X16277530Y-47831427D02*
X16206101Y-47759999D01*
X16206101Y-47759999D02*
X16134673Y-47617142D01*
X16134673Y-47617142D02*
X16134673Y-47259999D01*
X16134673Y-47259999D02*
X16206101Y-47117142D01*
X16206101Y-47117142D02*
X16277530Y-47045713D01*
X16277530Y-47045713D02*
X16420387Y-46974284D01*
X16420387Y-46974284D02*
X16777530Y-46974284D01*
X16777530Y-46974284D02*
X16920387Y-47045713D01*
X16920387Y-47045713D02*
X16991816Y-47117142D01*
X16991816Y-47117142D02*
X17063244Y-47259999D01*
X17063244Y-47259999D02*
X17063244Y-47617142D01*
X17063244Y-47617142D02*
X16991816Y-47759999D01*
X16991816Y-47759999D02*
X16920387Y-47831427D01*
X15563244Y-46045713D02*
X15563244Y-45902856D01*
X15563244Y-45902856D02*
X15634673Y-45759999D01*
X15634673Y-45759999D02*
X15706101Y-45688571D01*
X15706101Y-45688571D02*
X15848958Y-45617142D01*
X15848958Y-45617142D02*
X16134673Y-45545713D01*
X16134673Y-45545713D02*
X16491816Y-45545713D01*
X16491816Y-45545713D02*
X16777530Y-45617142D01*
X16777530Y-45617142D02*
X16920387Y-45688571D01*
X16920387Y-45688571D02*
X16991816Y-45759999D01*
X16991816Y-45759999D02*
X17063244Y-45902856D01*
X17063244Y-45902856D02*
X17063244Y-46045713D01*
X17063244Y-46045713D02*
X16991816Y-46188571D01*
X16991816Y-46188571D02*
X16920387Y-46259999D01*
X16920387Y-46259999D02*
X16777530Y-46331428D01*
X16777530Y-46331428D02*
X16491816Y-46402856D01*
X16491816Y-46402856D02*
X16134673Y-46402856D01*
X16134673Y-46402856D02*
X15848958Y-46331428D01*
X15848958Y-46331428D02*
X15706101Y-46259999D01*
X15706101Y-46259999D02*
X15634673Y-46188571D01*
X15634673Y-46188571D02*
X15563244Y-46045713D01*
X15563244Y-45045714D02*
X15563244Y-44117142D01*
X15563244Y-44117142D02*
X16134673Y-44617142D01*
X16134673Y-44617142D02*
X16134673Y-44402857D01*
X16134673Y-44402857D02*
X16206101Y-44260000D01*
X16206101Y-44260000D02*
X16277530Y-44188571D01*
X16277530Y-44188571D02*
X16420387Y-44117142D01*
X16420387Y-44117142D02*
X16777530Y-44117142D01*
X16777530Y-44117142D02*
X16920387Y-44188571D01*
X16920387Y-44188571D02*
X16991816Y-44260000D01*
X16991816Y-44260000D02*
X17063244Y-44402857D01*
X17063244Y-44402857D02*
X17063244Y-44831428D01*
X17063244Y-44831428D02*
X16991816Y-44974285D01*
X16991816Y-44974285D02*
X16920387Y-45045714D01*
X15688328Y-19221653D02*
X16902614Y-19221653D01*
X16902614Y-19221653D02*
X17045471Y-19150224D01*
X17045471Y-19150224D02*
X17116900Y-19078796D01*
X17116900Y-19078796D02*
X17188328Y-18935938D01*
X17188328Y-18935938D02*
X17188328Y-18650224D01*
X17188328Y-18650224D02*
X17116900Y-18507367D01*
X17116900Y-18507367D02*
X17045471Y-18435938D01*
X17045471Y-18435938D02*
X16902614Y-18364510D01*
X16902614Y-18364510D02*
X15688328Y-18364510D01*
X17116900Y-17721652D02*
X17188328Y-17507367D01*
X17188328Y-17507367D02*
X17188328Y-17150224D01*
X17188328Y-17150224D02*
X17116900Y-17007367D01*
X17116900Y-17007367D02*
X17045471Y-16935938D01*
X17045471Y-16935938D02*
X16902614Y-16864509D01*
X16902614Y-16864509D02*
X16759757Y-16864509D01*
X16759757Y-16864509D02*
X16616900Y-16935938D01*
X16616900Y-16935938D02*
X16545471Y-17007367D01*
X16545471Y-17007367D02*
X16474042Y-17150224D01*
X16474042Y-17150224D02*
X16402614Y-17435938D01*
X16402614Y-17435938D02*
X16331185Y-17578795D01*
X16331185Y-17578795D02*
X16259757Y-17650224D01*
X16259757Y-17650224D02*
X16116900Y-17721652D01*
X16116900Y-17721652D02*
X15974042Y-17721652D01*
X15974042Y-17721652D02*
X15831185Y-17650224D01*
X15831185Y-17650224D02*
X15759757Y-17578795D01*
X15759757Y-17578795D02*
X15688328Y-17435938D01*
X15688328Y-17435938D02*
X15688328Y-17078795D01*
X15688328Y-17078795D02*
X15759757Y-16864509D01*
X16402614Y-15721653D02*
X16474042Y-15507367D01*
X16474042Y-15507367D02*
X16545471Y-15435938D01*
X16545471Y-15435938D02*
X16688328Y-15364510D01*
X16688328Y-15364510D02*
X16902614Y-15364510D01*
X16902614Y-15364510D02*
X17045471Y-15435938D01*
X17045471Y-15435938D02*
X17116900Y-15507367D01*
X17116900Y-15507367D02*
X17188328Y-15650224D01*
X17188328Y-15650224D02*
X17188328Y-16221653D01*
X17188328Y-16221653D02*
X15688328Y-16221653D01*
X15688328Y-16221653D02*
X15688328Y-15721653D01*
X15688328Y-15721653D02*
X15759757Y-15578796D01*
X15759757Y-15578796D02*
X15831185Y-15507367D01*
X15831185Y-15507367D02*
X15974042Y-15435938D01*
X15974042Y-15435938D02*
X16116900Y-15435938D01*
X16116900Y-15435938D02*
X16259757Y-15507367D01*
X16259757Y-15507367D02*
X16331185Y-15578796D01*
X16331185Y-15578796D02*
X16402614Y-15721653D01*
X16402614Y-15721653D02*
X16402614Y-16221653D01*
X16616900Y-14721653D02*
X16616900Y-13578796D01*
X17045471Y-12007367D02*
X17116900Y-12078795D01*
X17116900Y-12078795D02*
X17188328Y-12293081D01*
X17188328Y-12293081D02*
X17188328Y-12435938D01*
X17188328Y-12435938D02*
X17116900Y-12650224D01*
X17116900Y-12650224D02*
X16974042Y-12793081D01*
X16974042Y-12793081D02*
X16831185Y-12864510D01*
X16831185Y-12864510D02*
X16545471Y-12935938D01*
X16545471Y-12935938D02*
X16331185Y-12935938D01*
X16331185Y-12935938D02*
X16045471Y-12864510D01*
X16045471Y-12864510D02*
X15902614Y-12793081D01*
X15902614Y-12793081D02*
X15759757Y-12650224D01*
X15759757Y-12650224D02*
X15688328Y-12435938D01*
X15688328Y-12435938D02*
X15688328Y-12293081D01*
X15688328Y-12293081D02*
X15759757Y-12078795D01*
X15759757Y-12078795D02*
X15831185Y-12007367D01*
X17188328Y-10221653D02*
X15688328Y-10221653D01*
X15688328Y-10221653D02*
X15688328Y-9864510D01*
X15688328Y-9864510D02*
X15759757Y-9650224D01*
X15759757Y-9650224D02*
X15902614Y-9507367D01*
X15902614Y-9507367D02*
X16045471Y-9435938D01*
X16045471Y-9435938D02*
X16331185Y-9364510D01*
X16331185Y-9364510D02*
X16545471Y-9364510D01*
X16545471Y-9364510D02*
X16831185Y-9435938D01*
X16831185Y-9435938D02*
X16974042Y-9507367D01*
X16974042Y-9507367D02*
X17116900Y-9650224D01*
X17116900Y-9650224D02*
X17188328Y-9864510D01*
X17188328Y-9864510D02*
X17188328Y-10221653D01*
X17116900Y-8150224D02*
X17188328Y-8293081D01*
X17188328Y-8293081D02*
X17188328Y-8578796D01*
X17188328Y-8578796D02*
X17116900Y-8721653D01*
X17116900Y-8721653D02*
X16974042Y-8793081D01*
X16974042Y-8793081D02*
X16402614Y-8793081D01*
X16402614Y-8793081D02*
X16259757Y-8721653D01*
X16259757Y-8721653D02*
X16188328Y-8578796D01*
X16188328Y-8578796D02*
X16188328Y-8293081D01*
X16188328Y-8293081D02*
X16259757Y-8150224D01*
X16259757Y-8150224D02*
X16402614Y-8078796D01*
X16402614Y-8078796D02*
X16545471Y-8078796D01*
X16545471Y-8078796D02*
X16688328Y-8793081D01*
X17116900Y-6793082D02*
X17188328Y-6935939D01*
X17188328Y-6935939D02*
X17188328Y-7221653D01*
X17188328Y-7221653D02*
X17116900Y-7364510D01*
X17116900Y-7364510D02*
X17045471Y-7435939D01*
X17045471Y-7435939D02*
X16902614Y-7507367D01*
X16902614Y-7507367D02*
X16474042Y-7507367D01*
X16474042Y-7507367D02*
X16331185Y-7435939D01*
X16331185Y-7435939D02*
X16259757Y-7364510D01*
X16259757Y-7364510D02*
X16188328Y-7221653D01*
X16188328Y-7221653D02*
X16188328Y-6935939D01*
X16188328Y-6935939D02*
X16259757Y-6793082D01*
X17188328Y-5935939D02*
X17116900Y-6078796D01*
X17116900Y-6078796D02*
X17045471Y-6150225D01*
X17045471Y-6150225D02*
X16902614Y-6221653D01*
X16902614Y-6221653D02*
X16474042Y-6221653D01*
X16474042Y-6221653D02*
X16331185Y-6150225D01*
X16331185Y-6150225D02*
X16259757Y-6078796D01*
X16259757Y-6078796D02*
X16188328Y-5935939D01*
X16188328Y-5935939D02*
X16188328Y-5721653D01*
X16188328Y-5721653D02*
X16259757Y-5578796D01*
X16259757Y-5578796D02*
X16331185Y-5507368D01*
X16331185Y-5507368D02*
X16474042Y-5435939D01*
X16474042Y-5435939D02*
X16902614Y-5435939D01*
X16902614Y-5435939D02*
X17045471Y-5507368D01*
X17045471Y-5507368D02*
X17116900Y-5578796D01*
X17116900Y-5578796D02*
X17188328Y-5721653D01*
X17188328Y-5721653D02*
X17188328Y-5935939D01*
X16188328Y-4935939D02*
X17188328Y-4578796D01*
X16188328Y-4221653D02*
X17188328Y-4578796D01*
X17188328Y-4578796D02*
X17545471Y-4721653D01*
X17545471Y-4721653D02*
X17616900Y-4793082D01*
X17616900Y-4793082D02*
X17688328Y-4935939D01*
X8238328Y-58218346D02*
X7524042Y-58718346D01*
X8238328Y-59075489D02*
X6738328Y-59075489D01*
X6738328Y-59075489D02*
X6738328Y-58504060D01*
X6738328Y-58504060D02*
X6809757Y-58361203D01*
X6809757Y-58361203D02*
X6881185Y-58289774D01*
X6881185Y-58289774D02*
X7024042Y-58218346D01*
X7024042Y-58218346D02*
X7238328Y-58218346D01*
X7238328Y-58218346D02*
X7381185Y-58289774D01*
X7381185Y-58289774D02*
X7452614Y-58361203D01*
X7452614Y-58361203D02*
X7524042Y-58504060D01*
X7524042Y-58504060D02*
X7524042Y-59075489D01*
X10064042Y-58789774D02*
X10778328Y-58789774D01*
X9278328Y-59289774D02*
X10064042Y-58789774D01*
X10064042Y-58789774D02*
X9278328Y-58289774D01*
X4198328Y-59278346D02*
X5698328Y-58921203D01*
X5698328Y-58921203D02*
X4626900Y-58635489D01*
X4626900Y-58635489D02*
X5698328Y-58349774D01*
X5698328Y-58349774D02*
X4198328Y-57992632D01*
X27189757Y-58235939D02*
X27118328Y-58378797D01*
X27118328Y-58378797D02*
X27118328Y-58593082D01*
X27118328Y-58593082D02*
X27189757Y-58807368D01*
X27189757Y-58807368D02*
X27332614Y-58950225D01*
X27332614Y-58950225D02*
X27475471Y-59021654D01*
X27475471Y-59021654D02*
X27761185Y-59093082D01*
X27761185Y-59093082D02*
X27975471Y-59093082D01*
X27975471Y-59093082D02*
X28261185Y-59021654D01*
X28261185Y-59021654D02*
X28404042Y-58950225D01*
X28404042Y-58950225D02*
X28546900Y-58807368D01*
X28546900Y-58807368D02*
X28618328Y-58593082D01*
X28618328Y-58593082D02*
X28618328Y-58450225D01*
X28618328Y-58450225D02*
X28546900Y-58235939D01*
X28546900Y-58235939D02*
X28475471Y-58164511D01*
X28475471Y-58164511D02*
X27975471Y-58164511D01*
X27975471Y-58164511D02*
X27975471Y-58450225D01*
X28618328Y-57521654D02*
X27118328Y-57521654D01*
X27118328Y-57521654D02*
X28618328Y-56664511D01*
X28618328Y-56664511D02*
X27118328Y-56664511D01*
X28618328Y-55950225D02*
X27118328Y-55950225D01*
X27118328Y-55950225D02*
X27118328Y-55593082D01*
X27118328Y-55593082D02*
X27189757Y-55378796D01*
X27189757Y-55378796D02*
X27332614Y-55235939D01*
X27332614Y-55235939D02*
X27475471Y-55164510D01*
X27475471Y-55164510D02*
X27761185Y-55093082D01*
X27761185Y-55093082D02*
X27975471Y-55093082D01*
X27975471Y-55093082D02*
X28261185Y-55164510D01*
X28261185Y-55164510D02*
X28404042Y-55235939D01*
X28404042Y-55235939D02*
X28546900Y-55378796D01*
X28546900Y-55378796D02*
X28618328Y-55593082D01*
X28618328Y-55593082D02*
X28618328Y-55950225D01*
X14429757Y-58289774D02*
X14358328Y-58432632D01*
X14358328Y-58432632D02*
X14358328Y-58646917D01*
X14358328Y-58646917D02*
X14429757Y-58861203D01*
X14429757Y-58861203D02*
X14572614Y-59004060D01*
X14572614Y-59004060D02*
X14715471Y-59075489D01*
X14715471Y-59075489D02*
X15001185Y-59146917D01*
X15001185Y-59146917D02*
X15215471Y-59146917D01*
X15215471Y-59146917D02*
X15501185Y-59075489D01*
X15501185Y-59075489D02*
X15644042Y-59004060D01*
X15644042Y-59004060D02*
X15786900Y-58861203D01*
X15786900Y-58861203D02*
X15858328Y-58646917D01*
X15858328Y-58646917D02*
X15858328Y-58504060D01*
X15858328Y-58504060D02*
X15786900Y-58289774D01*
X15786900Y-58289774D02*
X15715471Y-58218346D01*
X15715471Y-58218346D02*
X15215471Y-58218346D01*
X15215471Y-58218346D02*
X15215471Y-58504060D01*
X13318328Y-59075489D02*
X11818328Y-59075489D01*
X13318328Y-58218346D02*
X12461185Y-58861203D01*
X11818328Y-58218346D02*
X12675471Y-59075489D01*
X17672614Y-58635489D02*
X17744042Y-58421203D01*
X17744042Y-58421203D02*
X17815471Y-58349774D01*
X17815471Y-58349774D02*
X17958328Y-58278346D01*
X17958328Y-58278346D02*
X18172614Y-58278346D01*
X18172614Y-58278346D02*
X18315471Y-58349774D01*
X18315471Y-58349774D02*
X18386900Y-58421203D01*
X18386900Y-58421203D02*
X18458328Y-58564060D01*
X18458328Y-58564060D02*
X18458328Y-59135489D01*
X18458328Y-59135489D02*
X16958328Y-59135489D01*
X16958328Y-59135489D02*
X16958328Y-58635489D01*
X16958328Y-58635489D02*
X17029757Y-58492632D01*
X17029757Y-58492632D02*
X17101185Y-58421203D01*
X17101185Y-58421203D02*
X17244042Y-58349774D01*
X17244042Y-58349774D02*
X17386900Y-58349774D01*
X17386900Y-58349774D02*
X17529757Y-58421203D01*
X17529757Y-58421203D02*
X17601185Y-58492632D01*
X17601185Y-58492632D02*
X17672614Y-58635489D01*
X17672614Y-58635489D02*
X17672614Y-59135489D01*
X26006900Y-58848570D02*
X26078328Y-58634285D01*
X26078328Y-58634285D02*
X26078328Y-58277142D01*
X26078328Y-58277142D02*
X26006900Y-58134285D01*
X26006900Y-58134285D02*
X25935471Y-58062856D01*
X25935471Y-58062856D02*
X25792614Y-57991427D01*
X25792614Y-57991427D02*
X25649757Y-57991427D01*
X25649757Y-57991427D02*
X25506900Y-58062856D01*
X25506900Y-58062856D02*
X25435471Y-58134285D01*
X25435471Y-58134285D02*
X25364042Y-58277142D01*
X25364042Y-58277142D02*
X25292614Y-58562856D01*
X25292614Y-58562856D02*
X25221185Y-58705713D01*
X25221185Y-58705713D02*
X25149757Y-58777142D01*
X25149757Y-58777142D02*
X25006900Y-58848570D01*
X25006900Y-58848570D02*
X24864042Y-58848570D01*
X24864042Y-58848570D02*
X24721185Y-58777142D01*
X24721185Y-58777142D02*
X24649757Y-58705713D01*
X24649757Y-58705713D02*
X24578328Y-58562856D01*
X24578328Y-58562856D02*
X24578328Y-58205713D01*
X24578328Y-58205713D02*
X24649757Y-57991427D01*
D11*
X29299819Y-37028333D02*
X30014104Y-37028333D01*
X30014104Y-37028333D02*
X30156961Y-37075952D01*
X30156961Y-37075952D02*
X30252200Y-37171190D01*
X30252200Y-37171190D02*
X30299819Y-37314047D01*
X30299819Y-37314047D02*
X30299819Y-37409285D01*
X30299819Y-36552142D02*
X29299819Y-36552142D01*
X29299819Y-36552142D02*
X29299819Y-36171190D01*
X29299819Y-36171190D02*
X29347438Y-36075952D01*
X29347438Y-36075952D02*
X29395057Y-36028333D01*
X29395057Y-36028333D02*
X29490295Y-35980714D01*
X29490295Y-35980714D02*
X29633152Y-35980714D01*
X29633152Y-35980714D02*
X29728390Y-36028333D01*
X29728390Y-36028333D02*
X29776009Y-36075952D01*
X29776009Y-36075952D02*
X29823628Y-36171190D01*
X29823628Y-36171190D02*
X29823628Y-36552142D01*
X29395057Y-35599761D02*
X29347438Y-35552142D01*
X29347438Y-35552142D02*
X29299819Y-35456904D01*
X29299819Y-35456904D02*
X29299819Y-35218809D01*
X29299819Y-35218809D02*
X29347438Y-35123571D01*
X29347438Y-35123571D02*
X29395057Y-35075952D01*
X29395057Y-35075952D02*
X29490295Y-35028333D01*
X29490295Y-35028333D02*
X29585533Y-35028333D01*
X29585533Y-35028333D02*
X29728390Y-35075952D01*
X29728390Y-35075952D02*
X30299819Y-35647380D01*
X30299819Y-35647380D02*
X30299819Y-35028333D01*
X8239819Y-3373333D02*
X8954104Y-3373333D01*
X8954104Y-3373333D02*
X9096961Y-3420952D01*
X9096961Y-3420952D02*
X9192200Y-3516190D01*
X9192200Y-3516190D02*
X9239819Y-3659047D01*
X9239819Y-3659047D02*
X9239819Y-3754285D01*
X9239819Y-2897142D02*
X8239819Y-2897142D01*
X8239819Y-2897142D02*
X8239819Y-2516190D01*
X8239819Y-2516190D02*
X8287438Y-2420952D01*
X8287438Y-2420952D02*
X8335057Y-2373333D01*
X8335057Y-2373333D02*
X8430295Y-2325714D01*
X8430295Y-2325714D02*
X8573152Y-2325714D01*
X8573152Y-2325714D02*
X8668390Y-2373333D01*
X8668390Y-2373333D02*
X8716009Y-2420952D01*
X8716009Y-2420952D02*
X8763628Y-2516190D01*
X8763628Y-2516190D02*
X8763628Y-2897142D01*
X9239819Y-1373333D02*
X9239819Y-1944761D01*
X9239819Y-1659047D02*
X8239819Y-1659047D01*
X8239819Y-1659047D02*
X8382676Y-1754285D01*
X8382676Y-1754285D02*
X8477914Y-1849523D01*
X8477914Y-1849523D02*
X8525533Y-1944761D01*
D12*
X23368095Y-1362419D02*
X23368095Y-2171942D01*
X23368095Y-2171942D02*
X23415714Y-2267180D01*
X23415714Y-2267180D02*
X23463333Y-2314800D01*
X23463333Y-2314800D02*
X23558571Y-2362419D01*
X23558571Y-2362419D02*
X23749047Y-2362419D01*
X23749047Y-2362419D02*
X23844285Y-2314800D01*
X23844285Y-2314800D02*
X23891904Y-2267180D01*
X23891904Y-2267180D02*
X23939523Y-2171942D01*
X23939523Y-2171942D02*
X23939523Y-1362419D01*
X24320476Y-1362419D02*
X24939523Y-1362419D01*
X24939523Y-1362419D02*
X24606190Y-1743371D01*
X24606190Y-1743371D02*
X24749047Y-1743371D01*
X24749047Y-1743371D02*
X24844285Y-1790990D01*
X24844285Y-1790990D02*
X24891904Y-1838609D01*
X24891904Y-1838609D02*
X24939523Y-1933847D01*
X24939523Y-1933847D02*
X24939523Y-2171942D01*
X24939523Y-2171942D02*
X24891904Y-2267180D01*
X24891904Y-2267180D02*
X24844285Y-2314800D01*
X24844285Y-2314800D02*
X24749047Y-2362419D01*
X24749047Y-2362419D02*
X24463333Y-2362419D01*
X24463333Y-2362419D02*
X24368095Y-2314800D01*
X24368095Y-2314800D02*
X24320476Y-2267180D01*
D11*
X29511666Y-56914819D02*
X29511666Y-57629104D01*
X29511666Y-57629104D02*
X29464047Y-57771961D01*
X29464047Y-57771961D02*
X29368809Y-57867200D01*
X29368809Y-57867200D02*
X29225952Y-57914819D01*
X29225952Y-57914819D02*
X29130714Y-57914819D01*
X30416428Y-57248152D02*
X30416428Y-57914819D01*
X30178333Y-56867200D02*
X29940238Y-57581485D01*
X29940238Y-57581485D02*
X30559285Y-57581485D01*
X21256666Y-67399819D02*
X21256666Y-68114104D01*
X21256666Y-68114104D02*
X21209047Y-68256961D01*
X21209047Y-68256961D02*
X21113809Y-68352200D01*
X21113809Y-68352200D02*
X20970952Y-68399819D01*
X20970952Y-68399819D02*
X20875714Y-68399819D01*
X22209047Y-67399819D02*
X21732857Y-67399819D01*
X21732857Y-67399819D02*
X21685238Y-67876009D01*
X21685238Y-67876009D02*
X21732857Y-67828390D01*
X21732857Y-67828390D02*
X21828095Y-67780771D01*
X21828095Y-67780771D02*
X22066190Y-67780771D01*
X22066190Y-67780771D02*
X22161428Y-67828390D01*
X22161428Y-67828390D02*
X22209047Y-67876009D01*
X22209047Y-67876009D02*
X22256666Y-67971247D01*
X22256666Y-67971247D02*
X22256666Y-68209342D01*
X22256666Y-68209342D02*
X22209047Y-68304580D01*
X22209047Y-68304580D02*
X22161428Y-68352200D01*
X22161428Y-68352200D02*
X22066190Y-68399819D01*
X22066190Y-68399819D02*
X21828095Y-68399819D01*
X21828095Y-68399819D02*
X21732857Y-68352200D01*
X21732857Y-68352200D02*
X21685238Y-68304580D01*
X19774819Y-40973333D02*
X20489104Y-40973333D01*
X20489104Y-40973333D02*
X20631961Y-41020952D01*
X20631961Y-41020952D02*
X20727200Y-41116190D01*
X20727200Y-41116190D02*
X20774819Y-41259047D01*
X20774819Y-41259047D02*
X20774819Y-41354285D01*
X19870057Y-40544761D02*
X19822438Y-40497142D01*
X19822438Y-40497142D02*
X19774819Y-40401904D01*
X19774819Y-40401904D02*
X19774819Y-40163809D01*
X19774819Y-40163809D02*
X19822438Y-40068571D01*
X19822438Y-40068571D02*
X19870057Y-40020952D01*
X19870057Y-40020952D02*
X19965295Y-39973333D01*
X19965295Y-39973333D02*
X20060533Y-39973333D01*
X20060533Y-39973333D02*
X20203390Y-40020952D01*
X20203390Y-40020952D02*
X20774819Y-40592380D01*
X20774819Y-40592380D02*
X20774819Y-39973333D01*
X7284819Y-36528333D02*
X7999104Y-36528333D01*
X7999104Y-36528333D02*
X8141961Y-36575952D01*
X8141961Y-36575952D02*
X8237200Y-36671190D01*
X8237200Y-36671190D02*
X8284819Y-36814047D01*
X8284819Y-36814047D02*
X8284819Y-36909285D01*
X7284819Y-36147380D02*
X7284819Y-35528333D01*
X7284819Y-35528333D02*
X7665771Y-35861666D01*
X7665771Y-35861666D02*
X7665771Y-35718809D01*
X7665771Y-35718809D02*
X7713390Y-35623571D01*
X7713390Y-35623571D02*
X7761009Y-35575952D01*
X7761009Y-35575952D02*
X7856247Y-35528333D01*
X7856247Y-35528333D02*
X8094342Y-35528333D01*
X8094342Y-35528333D02*
X8189580Y-35575952D01*
X8189580Y-35575952D02*
X8237200Y-35623571D01*
X8237200Y-35623571D02*
X8284819Y-35718809D01*
X8284819Y-35718809D02*
X8284819Y-36004523D01*
X8284819Y-36004523D02*
X8237200Y-36099761D01*
X8237200Y-36099761D02*
X8189580Y-36147380D01*
D12*
X27397419Y-52831904D02*
X28206942Y-52831904D01*
X28206942Y-52831904D02*
X28302180Y-52784285D01*
X28302180Y-52784285D02*
X28349800Y-52736666D01*
X28349800Y-52736666D02*
X28397419Y-52641428D01*
X28397419Y-52641428D02*
X28397419Y-52450952D01*
X28397419Y-52450952D02*
X28349800Y-52355714D01*
X28349800Y-52355714D02*
X28302180Y-52308095D01*
X28302180Y-52308095D02*
X28206942Y-52260476D01*
X28206942Y-52260476D02*
X27397419Y-52260476D01*
X27492657Y-51831904D02*
X27445038Y-51784285D01*
X27445038Y-51784285D02*
X27397419Y-51689047D01*
X27397419Y-51689047D02*
X27397419Y-51450952D01*
X27397419Y-51450952D02*
X27445038Y-51355714D01*
X27445038Y-51355714D02*
X27492657Y-51308095D01*
X27492657Y-51308095D02*
X27587895Y-51260476D01*
X27587895Y-51260476D02*
X27683133Y-51260476D01*
X27683133Y-51260476D02*
X27825990Y-51308095D01*
X27825990Y-51308095D02*
X28397419Y-51879523D01*
X28397419Y-51879523D02*
X28397419Y-51260476D01*
D11*
X27813095Y-3899819D02*
X27813095Y-4709342D01*
X27813095Y-4709342D02*
X27860714Y-4804580D01*
X27860714Y-4804580D02*
X27908333Y-4852200D01*
X27908333Y-4852200D02*
X28003571Y-4899819D01*
X28003571Y-4899819D02*
X28194047Y-4899819D01*
X28194047Y-4899819D02*
X28289285Y-4852200D01*
X28289285Y-4852200D02*
X28336904Y-4804580D01*
X28336904Y-4804580D02*
X28384523Y-4709342D01*
X28384523Y-4709342D02*
X28384523Y-3899819D01*
X29384523Y-4899819D02*
X28813095Y-4899819D01*
X29098809Y-4899819D02*
X29098809Y-3899819D01*
X29098809Y-3899819D02*
X29003571Y-4042676D01*
X29003571Y-4042676D02*
X28908333Y-4137914D01*
X28908333Y-4137914D02*
X28813095Y-4185533D01*
D12*
X7493095Y-22317419D02*
X7493095Y-23126942D01*
X7493095Y-23126942D02*
X7540714Y-23222180D01*
X7540714Y-23222180D02*
X7588333Y-23269800D01*
X7588333Y-23269800D02*
X7683571Y-23317419D01*
X7683571Y-23317419D02*
X7874047Y-23317419D01*
X7874047Y-23317419D02*
X7969285Y-23269800D01*
X7969285Y-23269800D02*
X8016904Y-23222180D01*
X8016904Y-23222180D02*
X8064523Y-23126942D01*
X8064523Y-23126942D02*
X8064523Y-22317419D01*
X8969285Y-22650752D02*
X8969285Y-23317419D01*
X8731190Y-22269800D02*
X8493095Y-22984085D01*
X8493095Y-22984085D02*
X9112142Y-22984085D01*
D11*
X19774819Y-56213333D02*
X20489104Y-56213333D01*
X20489104Y-56213333D02*
X20631961Y-56260952D01*
X20631961Y-56260952D02*
X20727200Y-56356190D01*
X20727200Y-56356190D02*
X20774819Y-56499047D01*
X20774819Y-56499047D02*
X20774819Y-56594285D01*
X20774819Y-55213333D02*
X20774819Y-55784761D01*
X20774819Y-55499047D02*
X19774819Y-55499047D01*
X19774819Y-55499047D02*
X19917676Y-55594285D01*
X19917676Y-55594285D02*
X20012914Y-55689523D01*
X20012914Y-55689523D02*
X20060533Y-55784761D01*
D13*
%TO.C,JP2*%
X26940000Y-34780000D02*
X28940000Y-34780000D01*
X26940000Y-37580000D02*
X26940000Y-34780000D01*
X28940000Y-34780000D02*
X28940000Y-37580000D01*
X28940000Y-37580000D02*
X26940000Y-37580000D01*
%TO.C,JP1*%
X5985000Y-1140000D02*
X7985000Y-1140000D01*
X5985000Y-3940000D02*
X5985000Y-1140000D01*
X7985000Y-1140000D02*
X7985000Y-3940000D01*
X7985000Y-3940000D02*
X5985000Y-3940000D01*
%TO.C,U3*%
D12*
X10010000Y-840000D02*
X23010000Y-840000D01*
X23010000Y-23840000D01*
X10010000Y-23840000D01*
X10010000Y-840000D01*
D13*
%TO.C,J4*%
X22840000Y-58550000D02*
X24260000Y-58550000D01*
X22840000Y-70270000D02*
X22840000Y-58550000D01*
X24260000Y-58550000D02*
X24260000Y-63050000D01*
X24260000Y-63050000D02*
X26650000Y-63050000D01*
X25100000Y-58860000D02*
X25700000Y-58860000D01*
X25150000Y-64160000D02*
X25150000Y-69660000D01*
X25150000Y-69660000D02*
X25650000Y-69660000D01*
X25400000Y-59460000D02*
X25100000Y-58860000D01*
X25650000Y-64160000D02*
X25150000Y-64160000D01*
X25650000Y-69660000D02*
X25650000Y-64160000D01*
X25700000Y-58860000D02*
X25400000Y-59460000D01*
X26650000Y-70270000D02*
X22840000Y-70270000D01*
X26650000Y-70270000D02*
X30460000Y-70270000D01*
X27650000Y-64160000D02*
X27650000Y-69660000D01*
X27650000Y-69660000D02*
X28150000Y-69660000D01*
X28150000Y-64160000D02*
X27650000Y-64160000D01*
X28150000Y-69660000D02*
X28150000Y-64160000D01*
X29040000Y-58550000D02*
X29040000Y-63050000D01*
X29040000Y-63050000D02*
X26650000Y-63050000D01*
X30460000Y-58550000D02*
X29040000Y-58550000D01*
X30460000Y-70270000D02*
X30460000Y-58550000D01*
%TO.C,J5*%
X2520000Y-58550000D02*
X3940000Y-58550000D01*
X2520000Y-70270000D02*
X2520000Y-58550000D01*
X3940000Y-58550000D02*
X3940000Y-63050000D01*
X3940000Y-63050000D02*
X11330000Y-63050000D01*
X4780000Y-58860000D02*
X5380000Y-58860000D01*
X4830000Y-64160000D02*
X4830000Y-69660000D01*
X4830000Y-69660000D02*
X5330000Y-69660000D01*
X5080000Y-59460000D02*
X4780000Y-58860000D01*
X5330000Y-64160000D02*
X4830000Y-64160000D01*
X5330000Y-69660000D02*
X5330000Y-64160000D01*
X5380000Y-58860000D02*
X5080000Y-59460000D01*
X7330000Y-64160000D02*
X7330000Y-69660000D01*
X7330000Y-69660000D02*
X7830000Y-69660000D01*
X7830000Y-64160000D02*
X7330000Y-64160000D01*
X7830000Y-69660000D02*
X7830000Y-64160000D01*
X9830000Y-64160000D02*
X9830000Y-69660000D01*
X9830000Y-69660000D02*
X10330000Y-69660000D01*
X10330000Y-64160000D02*
X9830000Y-64160000D01*
X10330000Y-69660000D02*
X10330000Y-64160000D01*
X11330000Y-70270000D02*
X2520000Y-70270000D01*
X11330000Y-70270000D02*
X20140000Y-70270000D01*
X12330000Y-64160000D02*
X12330000Y-69660000D01*
X12330000Y-69660000D02*
X12830000Y-69660000D01*
X12830000Y-64160000D02*
X12330000Y-64160000D01*
X12830000Y-69660000D02*
X12830000Y-64160000D01*
X14830000Y-64160000D02*
X14830000Y-69660000D01*
X14830000Y-69660000D02*
X15330000Y-69660000D01*
X15330000Y-64160000D02*
X14830000Y-64160000D01*
X15330000Y-69660000D02*
X15330000Y-64160000D01*
X17330000Y-64160000D02*
X17330000Y-69660000D01*
X17330000Y-69660000D02*
X17830000Y-69660000D01*
X17830000Y-64160000D02*
X17330000Y-64160000D01*
X17830000Y-69660000D02*
X17830000Y-64160000D01*
X18720000Y-58550000D02*
X18720000Y-63050000D01*
X18720000Y-63050000D02*
X11330000Y-63050000D01*
X20140000Y-58550000D02*
X18720000Y-58550000D01*
X20140000Y-70270000D02*
X20140000Y-58550000D01*
%TO.C,J2*%
X3750000Y-41970000D02*
X3750000Y-40640000D01*
X5080000Y-41970000D02*
X3750000Y-41970000D01*
X6350000Y-39310000D02*
X19110000Y-39310000D01*
X6350000Y-41970000D02*
X6350000Y-39310000D01*
X6350000Y-41970000D02*
X19110000Y-41970000D01*
X19110000Y-41970000D02*
X19110000Y-39310000D01*
%TO.C,J3*%
X8830000Y-37525000D02*
X8830000Y-36195000D01*
X10160000Y-37525000D02*
X8830000Y-37525000D01*
X11430000Y-34865000D02*
X24190000Y-34865000D01*
X11430000Y-37525000D02*
X11430000Y-34865000D01*
X11430000Y-37525000D02*
X24190000Y-37525000D01*
X24190000Y-37525000D02*
X24190000Y-34865000D01*
%TO.C,U2*%
D12*
X2505000Y-58440000D02*
X26705000Y-58440000D01*
X26705000Y-37840000D01*
X2505000Y-37840000D01*
X2505000Y-58440000D01*
D13*
%TO.C,U1*%
X3580000Y720000D02*
X3580000Y-31610000D01*
X5700000Y-33740000D02*
X27310000Y-33740000D01*
X26900000Y720000D02*
X3580000Y720000D01*
X26900000Y-6180000D02*
X26900000Y720000D01*
X29440000Y-6180000D02*
X26900000Y-6180000D01*
X29440000Y-6180000D02*
X29440000Y-31610000D01*
X5710000Y-33740000D02*
G75*
G02*
X3580000Y-31610000I0J2130000D01*
G01*
X29440000Y-31610000D02*
G75*
G02*
X27310000Y-33740000I-2130002J2D01*
G01*
D11*
X30480000Y-26035000D02*
X29845000Y-25400000D01*
X30480000Y-24765000D01*
X30480000Y-26035000D01*
G36*
X30480000Y-26035000D02*
G01*
X29845000Y-25400000D01*
X30480000Y-24765000D01*
X30480000Y-26035000D01*
G37*
%TO.C,U4*%
D14*
X7366000Y-24130000D02*
X25654000Y-24130000D01*
X25654000Y-34290000D01*
X7366000Y-34290000D01*
X7366000Y-24130000D01*
D13*
%TO.C,J1*%
X3750000Y-57210000D02*
X3750000Y-55880000D01*
X5080000Y-57210000D02*
X3750000Y-57210000D01*
X6350000Y-54550000D02*
X19110000Y-54550000D01*
X6350000Y-57210000D02*
X6350000Y-54550000D01*
X6350000Y-57210000D02*
X19110000Y-57210000D01*
X19110000Y-57210000D02*
X19110000Y-54550000D01*
%TD*%
%LPC*%
D15*
%TO.C,JP2*%
X27940000Y-36830000D03*
X27940000Y-35530000D03*
%TD*%
%TO.C,JP1*%
X6985000Y-1890000D03*
X6985000Y-3190000D03*
%TD*%
D16*
%TO.C,U3*%
X13010000Y-22590000D03*
D17*
X12260000Y-2090000D03*
D18*
X12260000Y-6090000D03*
D16*
X20010000Y-22590000D03*
D17*
X20760000Y-2090000D03*
D18*
X20760000Y-6090000D03*
%TD*%
D19*
%TO.C,J4*%
X25400000Y-60960000D03*
D20*
X27900000Y-60960000D03*
%TD*%
D21*
%TO.C,J5*%
X5080000Y-60960000D03*
D22*
X7580000Y-60960000D03*
X10080000Y-60960000D03*
X12580000Y-60960000D03*
X15080000Y-60960000D03*
X17580000Y-60960000D03*
%TD*%
D23*
%TO.C,J2*%
X5080000Y-40640000D03*
D24*
X7620000Y-40640000D03*
X10160000Y-40640000D03*
X12700000Y-40640000D03*
X15240000Y-40640000D03*
X17780000Y-40640000D03*
%TD*%
D23*
%TO.C,J3*%
X10160000Y-36195000D03*
D24*
X12700000Y-36195000D03*
X15240000Y-36195000D03*
X17780000Y-36195000D03*
X20320000Y-36195000D03*
X22860000Y-36195000D03*
%TD*%
D25*
%TO.C,U2*%
X22665000Y-56440000D03*
X25205000Y-56440000D03*
X22665000Y-53340000D03*
X25205000Y-53340000D03*
X21705000Y-48185000D03*
X21705000Y-45645000D03*
X7505000Y-48185000D03*
X7505000Y-45645000D03*
%TD*%
D26*
%TO.C,U1*%
X27940000Y-25400000D03*
D27*
X27940000Y-22860000D03*
X27940000Y-20320000D03*
X27940000Y-17780000D03*
X27940000Y-15240000D03*
X27940000Y-12700000D03*
X27940000Y-10160000D03*
X27940000Y-7620000D03*
X5080000Y-7620000D03*
X5080000Y-10160000D03*
X5080000Y-12700000D03*
X5080000Y-15240000D03*
X5080000Y-17780000D03*
X5080000Y-20320000D03*
X5080000Y-22860000D03*
X5080000Y-25400000D03*
%TD*%
D25*
%TO.C,U4*%
X8890000Y-26670000D03*
X8890000Y-29210000D03*
X8890000Y-31750000D03*
%TD*%
D23*
%TO.C,J1*%
X5080000Y-55880000D03*
D24*
X7620000Y-55880000D03*
X10160000Y-55880000D03*
X12700000Y-55880000D03*
X15240000Y-55880000D03*
X17780000Y-55880000D03*
%TD*%
%LPD*%
M02*
