%TF.GenerationSoftware,KiCad,Pcbnew,8.0.7*%
%TF.CreationDate,2025-02-05T23:04:40+01:00*%
%TF.ProjectId,YADCMCB,59414443-4d43-4422-9e6b-696361645f70,rev?*%
%TF.SameCoordinates,Original*%
%TF.FileFunction,Soldermask,Bot*%
%TF.FilePolarity,Negative*%
%FSLAX46Y46*%
G04 Gerber Fmt 4.6, Leading zero omitted, Abs format (unit mm)*
G04 Created by KiCad (PCBNEW 8.0.7) date 2025-02-05 23:04:40*
%MOMM*%
%LPD*%
G01*
G04 APERTURE LIST*
G04 Aperture macros list*
%AMRoundRect*
0 Rectangle with rounded corners*
0 $1 Rounding radius*
0 $2 $3 $4 $5 $6 $7 $8 $9 X,Y pos of 4 corners*
0 Add a 4 corners polygon primitive as box body*
4,1,4,$2,$3,$4,$5,$6,$7,$8,$9,$2,$3,0*
0 Add four circle primitives for the rounded corners*
1,1,$1+$1,$2,$3*
1,1,$1+$1,$4,$5*
1,1,$1+$1,$6,$7*
1,1,$1+$1,$8,$9*
0 Add four rect primitives between the rounded corners*
20,1,$1+$1,$2,$3,$4,$5,0*
20,1,$1+$1,$4,$5,$6,$7,0*
20,1,$1+$1,$6,$7,$8,$9,0*
20,1,$1+$1,$8,$9,$2,$3,0*%
G04 Aperture macros list end*
%ADD10R,1.500000X3.000000*%
%ADD11O,1.000000X1.800000*%
%ADD12O,1.000000X2.100000*%
%ADD13RoundRect,0.250000X-0.600000X-0.750000X0.600000X-0.750000X0.600000X0.750000X-0.600000X0.750000X0*%
%ADD14O,1.700000X2.000000*%
%ADD15RoundRect,0.250000X-0.600000X-0.725000X0.600000X-0.725000X0.600000X0.725000X-0.600000X0.725000X0*%
%ADD16O,1.700000X1.950000*%
%ADD17R,1.700000X1.700000*%
%ADD18O,1.700000X1.700000*%
%ADD19C,1.700000*%
%ADD20R,2.000000X2.000000*%
%ADD21O,2.000000X1.600000*%
G04 APERTURE END LIST*
D10*
%TO.C,U3*%
X11510000Y-20090000D03*
D11*
X12260000Y-2090000D03*
D12*
X12260000Y-6090000D03*
D11*
X20760000Y-2090000D03*
D12*
X20760000Y-6090000D03*
D10*
X21510000Y-20090000D03*
%TD*%
D13*
%TO.C,J4*%
X25400000Y-60960000D03*
D14*
X27900000Y-60960000D03*
%TD*%
D15*
%TO.C,J5*%
X5080000Y-60960000D03*
D16*
X7580000Y-60960000D03*
X10080000Y-60960000D03*
X12580000Y-60960000D03*
X15080000Y-60960000D03*
X17580000Y-60960000D03*
%TD*%
D17*
%TO.C,J2*%
X5080000Y-40640000D03*
D18*
X7620000Y-40640000D03*
X10160000Y-40640000D03*
X12700000Y-40640000D03*
X15240000Y-40640000D03*
X17780000Y-40640000D03*
%TD*%
D17*
%TO.C,J3*%
X10160000Y-36195000D03*
D18*
X12700000Y-36195000D03*
X15240000Y-36195000D03*
X17780000Y-36195000D03*
X20320000Y-36195000D03*
X22860000Y-36195000D03*
%TD*%
D19*
%TO.C,U2*%
X22665000Y-56440000D03*
X25205000Y-56440000D03*
X22665000Y-53340000D03*
X25205000Y-53340000D03*
X21705000Y-48185000D03*
X21705000Y-45645000D03*
X7505000Y-48185000D03*
X7505000Y-45645000D03*
%TD*%
D20*
%TO.C,U1*%
X27940000Y-25400000D03*
D21*
X27940000Y-22860000D03*
X27940000Y-20320000D03*
X27940000Y-17780000D03*
X27940000Y-15240000D03*
X27940000Y-12700000D03*
X27940000Y-10160000D03*
X27940000Y-7620000D03*
X5080000Y-7620000D03*
X5080000Y-10160000D03*
X5080000Y-12700000D03*
X5080000Y-15240000D03*
X5080000Y-17780000D03*
X5080000Y-20320000D03*
X5080000Y-22860000D03*
X5080000Y-25400000D03*
%TD*%
D19*
%TO.C,U4*%
X8890000Y-26670000D03*
X8890000Y-29210000D03*
X8890000Y-31750000D03*
%TD*%
D17*
%TO.C,J1*%
X5080000Y-55880000D03*
D18*
X7620000Y-55880000D03*
X10160000Y-55880000D03*
X12700000Y-55880000D03*
X15240000Y-55880000D03*
X17780000Y-55880000D03*
%TD*%
M02*
