M48
; DRILL file {KiCad 8.0.7} date 2025-02-05T23:04:42+0100
; FORMAT={-:-/ absolute / inch / decimal}
; #@! TF.CreationDate,2025-02-05T23:04:42+01:00
; #@! TF.GenerationSoftware,Kicad,Pcbnew,8.0.7
; #@! TF.FileFunction,Plated,1,2,PTH
FMAT,2
INCH
; #@! TA.AperFunction,Plated,PTH,ViaDrill
T1C0.0118
; #@! TA.AperFunction,Plated,PTH,ComponentDrill
T2C0.0236
; #@! TA.AperFunction,Plated,PTH,ComponentDrill
T3C0.0374
; #@! TA.AperFunction,Plated,PTH,ComponentDrill
T4C0.0394
; #@! TA.AperFunction,Plated,PTH,ViaDrill
T5C0.0827
%
G90
G05
T1
X0.525Y-0.725
X0.775Y-0.725
T3
X0.2Y-2.4
X0.2984Y-2.4
X0.3969Y-2.4
X0.4953Y-2.4
X0.5937Y-2.4
X0.6921Y-2.4
T4
X0.2Y-0.3
X0.2Y-0.4
X0.2Y-0.5
X0.2Y-0.6
X0.2Y-0.7
X0.2Y-0.8
X0.2Y-0.9
X0.2Y-1.0
X0.2Y-1.6
X0.2Y-2.2
X0.2955Y-1.797
X0.2955Y-1.897
X0.3Y-1.6
X0.3Y-2.2
X0.35Y-1.05
X0.35Y-1.15
X0.35Y-1.25
X0.4Y-1.425
X0.4Y-1.6
X0.4Y-2.2
X0.5Y-1.425
X0.5Y-1.6
X0.5Y-2.2
X0.6Y-1.425
X0.6Y-1.6
X0.6Y-2.2
X0.7Y-1.425
X0.7Y-1.6
X0.7Y-2.2
X0.8Y-1.425
X0.8545Y-1.797
X0.8545Y-1.897
X0.8923Y-2.1
X0.8923Y-2.222
X0.9Y-1.425
X0.9923Y-2.1
X0.9923Y-2.222
X1.0Y-2.4
X1.0984Y-2.4
X1.1Y-0.3
X1.1Y-0.4
X1.1Y-0.5
X1.1Y-0.6
X1.1Y-0.7
X1.1Y-0.8
X1.1Y-0.9
X1.1Y-1.0
T5
X0.1382Y-0.0508
X0.1382Y-2.6492
X1.1618Y-0.0508
X1.1618Y-2.6492
T2
G00X0.4827Y-0.0665
M15
G01X0.4827Y-0.098
M16
G05
G00X0.4827Y-0.2181
M15
G01X0.4827Y-0.2614
M16
G05
G00X0.8173Y-0.0665
M15
G01X0.8173Y-0.098
M16
G05
G00X0.8173Y-0.2181
M15
G01X0.8173Y-0.2614
M16
G05
M30
